<?xml version="1.0" encoding="utf-8" standalone="no"?>
<!DOCTYPE svg PUBLIC "-//W3C//DTD SVG 1.1//EN"
  "http://www.w3.org/Graphics/SVG/1.1/DTD/svg11.dtd">
<svg xmlns:xlink="http://www.w3.org/1999/xlink" width="784.495625pt" height="327.37225pt" viewBox="0 0 784.495625 327.37225" xmlns="http://www.w3.org/2000/svg" version="1.1">
 <metadata>
  <rdf:RDF xmlns:dc="http://purl.org/dc/elements/1.1/" xmlns:cc="http://creativecommons.org/ns#" xmlns:rdf="http://www.w3.org/1999/02/22-rdf-syntax-ns#">
   <cc:Work>
    <dc:type rdf:resource="http://purl.org/dc/dcmitype/StillImage"/>
    <dc:date>2026-06-29T20:37:15.079688</dc:date>
    <dc:format>image/svg+xml</dc:format>
    <dc:creator>
     <cc:Agent>
      <dc:title>Matplotlib v3.10.1, https://matplotlib.org/</dc:title>
     </cc:Agent>
    </dc:creator>
   </cc:Work>
  </rdf:RDF>
 </metadata>
 <defs>
  <style type="text/css">*{stroke-linejoin: round; stroke-linecap: butt}</style>
 </defs>
 <g id="figure_1">
  <g id="patch_1">
   <path d="M 0 327.37225 
L 784.495625 327.37225 
L 784.495625 0 
L 0 0 
z
" style="fill: #ffffff"/>
  </g>
  <g id="axes_1">
   <g id="patch_2">
    <path d="M 46.965625 289.816 
L 359.317692 289.816 
L 359.317692 58.704 
L 46.965625 58.704 
z
" style="fill: #ffffff"/>
   </g>
   <g id="matplotlib.axis_1">
    <g id="xtick_1">
     <g id="line2d_1">
      <path d="M 61.163446 289.816 
L 61.163446 58.704 
" clip-path="url(#p8388f93b9e)" style="fill: none; stroke: #b0b0b0; stroke-opacity: 0.25; stroke-width: 0.8; stroke-linecap: square"/>
     </g>
     <g id="line2d_2">
      <defs>
       <path id="mca117f39ac" d="M 0 0 
L 0 3.5 
" style="stroke: #000000; stroke-width: 0.8"/>
      </defs>
      <g>
       <use xlink:href="#mca117f39ac" x="61.163446" y="289.816" style="stroke: #000000; stroke-width: 0.8"/>
      </g>
     </g>
     <g id="text_1">
      <!-- 2000 -->
      <g transform="translate(48.438446 304.414437) scale(0.1 -0.1)">
       <defs>
        <path id="DejaVuSans-32" d="M 1228 531 
L 3431 531 
L 3431 0 
L 469 0 
L 469 531 
Q 828 903 1448 1529 
Q 2069 2156 2228 2338 
Q 2531 2678 2651 2914 
Q 2772 3150 2772 3378 
Q 2772 3750 2511 3984 
Q 2250 4219 1831 4219 
Q 1534 4219 1204 4116 
Q 875 4013 500 3803 
L 500 4441 
Q 881 4594 1212 4672 
Q 1544 4750 1819 4750 
Q 2544 4750 2975 4387 
Q 3406 4025 3406 3419 
Q 3406 3131 3298 2873 
Q 3191 2616 2906 2266 
Q 2828 2175 2409 1742 
Q 1991 1309 1228 531 
z
" transform="scale(0.015625)"/>
        <path id="DejaVuSans-30" d="M 2034 4250 
Q 1547 4250 1301 3770 
Q 1056 3291 1056 2328 
Q 1056 1369 1301 889 
Q 1547 409 2034 409 
Q 2525 409 2770 889 
Q 3016 1369 3016 2328 
Q 3016 3291 2770 3770 
Q 2525 4250 2034 4250 
z
M 2034 4750 
Q 2819 4750 3233 4129 
Q 3647 3509 3647 2328 
Q 3647 1150 3233 529 
Q 2819 -91 2034 -91 
Q 1250 -91 836 529 
Q 422 1150 422 2328 
Q 422 3509 836 4129 
Q 1250 4750 2034 4750 
z
" transform="scale(0.015625)"/>
       </defs>
       <use xlink:href="#DejaVuSans-32"/>
       <use xlink:href="#DejaVuSans-30" transform="translate(63.623047 0)"/>
       <use xlink:href="#DejaVuSans-30" transform="translate(127.246094 0)"/>
       <use xlink:href="#DejaVuSans-30" transform="translate(190.869141 0)"/>
      </g>
     </g>
    </g>
    <g id="xtick_2">
     <g id="line2d_3">
      <path d="M 120.321035 289.816 
L 120.321035 58.704 
" clip-path="url(#p8388f93b9e)" style="fill: none; stroke: #b0b0b0; stroke-opacity: 0.25; stroke-width: 0.8; stroke-linecap: square"/>
     </g>
     <g id="line2d_4">
      <g>
       <use xlink:href="#mca117f39ac" x="120.321035" y="289.816" style="stroke: #000000; stroke-width: 0.8"/>
      </g>
     </g>
     <g id="text_2">
      <!-- 2005 -->
      <g transform="translate(107.596035 304.414437) scale(0.1 -0.1)">
       <defs>
        <path id="DejaVuSans-35" d="M 691 4666 
L 3169 4666 
L 3169 4134 
L 1269 4134 
L 1269 2991 
Q 1406 3038 1543 3061 
Q 1681 3084 1819 3084 
Q 2600 3084 3056 2656 
Q 3513 2228 3513 1497 
Q 3513 744 3044 326 
Q 2575 -91 1722 -91 
Q 1428 -91 1123 -41 
Q 819 9 494 109 
L 494 744 
Q 775 591 1075 516 
Q 1375 441 1709 441 
Q 2250 441 2565 725 
Q 2881 1009 2881 1497 
Q 2881 1984 2565 2268 
Q 2250 2553 1709 2553 
Q 1456 2553 1204 2497 
Q 953 2441 691 2322 
L 691 4666 
z
" transform="scale(0.015625)"/>
       </defs>
       <use xlink:href="#DejaVuSans-32"/>
       <use xlink:href="#DejaVuSans-30" transform="translate(63.623047 0)"/>
       <use xlink:href="#DejaVuSans-30" transform="translate(127.246094 0)"/>
       <use xlink:href="#DejaVuSans-35" transform="translate(190.869141 0)"/>
      </g>
     </g>
    </g>
    <g id="xtick_3">
     <g id="line2d_5">
      <path d="M 179.478623 289.816 
L 179.478623 58.704 
" clip-path="url(#p8388f93b9e)" style="fill: none; stroke: #b0b0b0; stroke-opacity: 0.25; stroke-width: 0.8; stroke-linecap: square"/>
     </g>
     <g id="line2d_6">
      <g>
       <use xlink:href="#mca117f39ac" x="179.478623" y="289.816" style="stroke: #000000; stroke-width: 0.8"/>
      </g>
     </g>
     <g id="text_3">
      <!-- 2010 -->
      <g transform="translate(166.753623 304.414437) scale(0.1 -0.1)">
       <defs>
        <path id="DejaVuSans-31" d="M 794 531 
L 1825 531 
L 1825 4091 
L 703 3866 
L 703 4441 
L 1819 4666 
L 2450 4666 
L 2450 531 
L 3481 531 
L 3481 0 
L 794 0 
L 794 531 
z
" transform="scale(0.015625)"/>
       </defs>
       <use xlink:href="#DejaVuSans-32"/>
       <use xlink:href="#DejaVuSans-30" transform="translate(63.623047 0)"/>
       <use xlink:href="#DejaVuSans-31" transform="translate(127.246094 0)"/>
       <use xlink:href="#DejaVuSans-30" transform="translate(190.869141 0)"/>
      </g>
     </g>
    </g>
    <g id="xtick_4">
     <g id="line2d_7">
      <path d="M 238.636211 289.816 
L 238.636211 58.704 
" clip-path="url(#p8388f93b9e)" style="fill: none; stroke: #b0b0b0; stroke-opacity: 0.25; stroke-width: 0.8; stroke-linecap: square"/>
     </g>
     <g id="line2d_8">
      <g>
       <use xlink:href="#mca117f39ac" x="238.636211" y="289.816" style="stroke: #000000; stroke-width: 0.8"/>
      </g>
     </g>
     <g id="text_4">
      <!-- 2015 -->
      <g transform="translate(225.911211 304.414437) scale(0.1 -0.1)">
       <use xlink:href="#DejaVuSans-32"/>
       <use xlink:href="#DejaVuSans-30" transform="translate(63.623047 0)"/>
       <use xlink:href="#DejaVuSans-31" transform="translate(127.246094 0)"/>
       <use xlink:href="#DejaVuSans-35" transform="translate(190.869141 0)"/>
      </g>
     </g>
    </g>
    <g id="xtick_5">
     <g id="line2d_9">
      <path d="M 297.7938 289.816 
L 297.7938 58.704 
" clip-path="url(#p8388f93b9e)" style="fill: none; stroke: #b0b0b0; stroke-opacity: 0.25; stroke-width: 0.8; stroke-linecap: square"/>
     </g>
     <g id="line2d_10">
      <g>
       <use xlink:href="#mca117f39ac" x="297.7938" y="289.816" style="stroke: #000000; stroke-width: 0.8"/>
      </g>
     </g>
     <g id="text_5">
      <!-- 2020 -->
      <g transform="translate(285.0688 304.414437) scale(0.1 -0.1)">
       <use xlink:href="#DejaVuSans-32"/>
       <use xlink:href="#DejaVuSans-30" transform="translate(63.623047 0)"/>
       <use xlink:href="#DejaVuSans-32" transform="translate(127.246094 0)"/>
       <use xlink:href="#DejaVuSans-30" transform="translate(190.869141 0)"/>
      </g>
     </g>
    </g>
    <g id="xtick_6">
     <g id="line2d_11">
      <path d="M 356.951388 289.816 
L 356.951388 58.704 
" clip-path="url(#p8388f93b9e)" style="fill: none; stroke: #b0b0b0; stroke-opacity: 0.25; stroke-width: 0.8; stroke-linecap: square"/>
     </g>
     <g id="line2d_12">
      <g>
       <use xlink:href="#mca117f39ac" x="356.951388" y="289.816" style="stroke: #000000; stroke-width: 0.8"/>
      </g>
     </g>
     <g id="text_6">
      <!-- 2025 -->
      <g transform="translate(344.226388 304.414437) scale(0.1 -0.1)">
       <use xlink:href="#DejaVuSans-32"/>
       <use xlink:href="#DejaVuSans-30" transform="translate(63.623047 0)"/>
       <use xlink:href="#DejaVuSans-32" transform="translate(127.246094 0)"/>
       <use xlink:href="#DejaVuSans-35" transform="translate(190.869141 0)"/>
      </g>
     </g>
    </g>
    <g id="text_7">
     <!-- Year -->
     <g transform="translate(192.554158 318.092562) scale(0.1 -0.1)">
      <defs>
       <path id="DejaVuSans-59" d="M -13 4666 
L 666 4666 
L 1959 2747 
L 3244 4666 
L 3922 4666 
L 2272 2222 
L 2272 0 
L 1638 0 
L 1638 2222 
L -13 4666 
z
" transform="scale(0.015625)"/>
       <path id="DejaVuSans-65" d="M 3597 1894 
L 3597 1613 
L 953 1613 
Q 991 1019 1311 708 
Q 1631 397 2203 397 
Q 2534 397 2845 478 
Q 3156 559 3463 722 
L 3463 178 
Q 3153 47 2828 -22 
Q 2503 -91 2169 -91 
Q 1331 -91 842 396 
Q 353 884 353 1716 
Q 353 2575 817 3079 
Q 1281 3584 2069 3584 
Q 2775 3584 3186 3129 
Q 3597 2675 3597 1894 
z
M 3022 2063 
Q 3016 2534 2758 2815 
Q 2500 3097 2075 3097 
Q 1594 3097 1305 2825 
Q 1016 2553 972 2059 
L 3022 2063 
z
" transform="scale(0.015625)"/>
       <path id="DejaVuSans-61" d="M 2194 1759 
Q 1497 1759 1228 1600 
Q 959 1441 959 1056 
Q 959 750 1161 570 
Q 1363 391 1709 391 
Q 2188 391 2477 730 
Q 2766 1069 2766 1631 
L 2766 1759 
L 2194 1759 
z
M 3341 1997 
L 3341 0 
L 2766 0 
L 2766 531 
Q 2569 213 2275 61 
Q 1981 -91 1556 -91 
Q 1019 -91 701 211 
Q 384 513 384 1019 
Q 384 1609 779 1909 
Q 1175 2209 1959 2209 
L 2766 2209 
L 2766 2266 
Q 2766 2663 2505 2880 
Q 2244 3097 1772 3097 
Q 1472 3097 1187 3025 
Q 903 2953 641 2809 
L 641 3341 
Q 956 3463 1253 3523 
Q 1550 3584 1831 3584 
Q 2591 3584 2966 3190 
Q 3341 2797 3341 1997 
z
" transform="scale(0.015625)"/>
       <path id="DejaVuSans-72" d="M 2631 2963 
Q 2534 3019 2420 3045 
Q 2306 3072 2169 3072 
Q 1681 3072 1420 2755 
Q 1159 2438 1159 1844 
L 1159 0 
L 581 0 
L 581 3500 
L 1159 3500 
L 1159 2956 
Q 1341 3275 1631 3429 
Q 1922 3584 2338 3584 
Q 2397 3584 2469 3576 
Q 2541 3569 2628 3553 
L 2631 2963 
z
" transform="scale(0.015625)"/>
      </defs>
      <use xlink:href="#DejaVuSans-59"/>
      <use xlink:href="#DejaVuSans-65" transform="translate(47.833984 0)"/>
      <use xlink:href="#DejaVuSans-61" transform="translate(109.357422 0)"/>
      <use xlink:href="#DejaVuSans-72" transform="translate(170.636719 0)"/>
     </g>
    </g>
   </g>
   <g id="matplotlib.axis_2">
    <g id="ytick_1">
     <g id="line2d_13">
      <path d="M 46.965625 289.816 
L 359.317692 289.816 
" clip-path="url(#p8388f93b9e)" style="fill: none; stroke: #b0b0b0; stroke-opacity: 0.25; stroke-width: 0.8; stroke-linecap: square"/>
     </g>
     <g id="line2d_14">
      <defs>
       <path id="m8b846c2393" d="M 0 0 
L -3.5 0 
" style="stroke: #000000; stroke-width: 0.8"/>
      </defs>
      <g>
       <use xlink:href="#m8b846c2393" x="46.965625" y="289.816" style="stroke: #000000; stroke-width: 0.8"/>
      </g>
     </g>
     <g id="text_8">
      <!-- 0 -->
      <g transform="translate(33.603125 293.615219) scale(0.1 -0.1)">
       <use xlink:href="#DejaVuSans-30"/>
      </g>
     </g>
    </g>
    <g id="ytick_2">
     <g id="line2d_15">
      <path d="M 46.965625 243.5936 
L 359.317692 243.5936 
" clip-path="url(#p8388f93b9e)" style="fill: none; stroke: #b0b0b0; stroke-opacity: 0.25; stroke-width: 0.8; stroke-linecap: square"/>
     </g>
     <g id="line2d_16">
      <g>
       <use xlink:href="#m8b846c2393" x="46.965625" y="243.5936" style="stroke: #000000; stroke-width: 0.8"/>
      </g>
     </g>
     <g id="text_9">
      <!-- 20 -->
      <g transform="translate(27.240625 247.392819) scale(0.1 -0.1)">
       <use xlink:href="#DejaVuSans-32"/>
       <use xlink:href="#DejaVuSans-30" transform="translate(63.623047 0)"/>
      </g>
     </g>
    </g>
    <g id="ytick_3">
     <g id="line2d_17">
      <path d="M 46.965625 197.3712 
L 359.317692 197.3712 
" clip-path="url(#p8388f93b9e)" style="fill: none; stroke: #b0b0b0; stroke-opacity: 0.25; stroke-width: 0.8; stroke-linecap: square"/>
     </g>
     <g id="line2d_18">
      <g>
       <use xlink:href="#m8b846c2393" x="46.965625" y="197.3712" style="stroke: #000000; stroke-width: 0.8"/>
      </g>
     </g>
     <g id="text_10">
      <!-- 40 -->
      <g transform="translate(27.240625 201.170419) scale(0.1 -0.1)">
       <defs>
        <path id="DejaVuSans-34" d="M 2419 4116 
L 825 1625 
L 2419 1625 
L 2419 4116 
z
M 2253 4666 
L 3047 4666 
L 3047 1625 
L 3713 1625 
L 3713 1100 
L 3047 1100 
L 3047 0 
L 2419 0 
L 2419 1100 
L 313 1100 
L 313 1709 
L 2253 4666 
z
" transform="scale(0.015625)"/>
       </defs>
       <use xlink:href="#DejaVuSans-34"/>
       <use xlink:href="#DejaVuSans-30" transform="translate(63.623047 0)"/>
      </g>
     </g>
    </g>
    <g id="ytick_4">
     <g id="line2d_19">
      <path d="M 46.965625 151.1488 
L 359.317692 151.1488 
" clip-path="url(#p8388f93b9e)" style="fill: none; stroke: #b0b0b0; stroke-opacity: 0.25; stroke-width: 0.8; stroke-linecap: square"/>
     </g>
     <g id="line2d_20">
      <g>
       <use xlink:href="#m8b846c2393" x="46.965625" y="151.1488" style="stroke: #000000; stroke-width: 0.8"/>
      </g>
     </g>
     <g id="text_11">
      <!-- 60 -->
      <g transform="translate(27.240625 154.948019) scale(0.1 -0.1)">
       <defs>
        <path id="DejaVuSans-36" d="M 2113 2584 
Q 1688 2584 1439 2293 
Q 1191 2003 1191 1497 
Q 1191 994 1439 701 
Q 1688 409 2113 409 
Q 2538 409 2786 701 
Q 3034 994 3034 1497 
Q 3034 2003 2786 2293 
Q 2538 2584 2113 2584 
z
M 3366 4563 
L 3366 3988 
Q 3128 4100 2886 4159 
Q 2644 4219 2406 4219 
Q 1781 4219 1451 3797 
Q 1122 3375 1075 2522 
Q 1259 2794 1537 2939 
Q 1816 3084 2150 3084 
Q 2853 3084 3261 2657 
Q 3669 2231 3669 1497 
Q 3669 778 3244 343 
Q 2819 -91 2113 -91 
Q 1303 -91 875 529 
Q 447 1150 447 2328 
Q 447 3434 972 4092 
Q 1497 4750 2381 4750 
Q 2619 4750 2861 4703 
Q 3103 4656 3366 4563 
z
" transform="scale(0.015625)"/>
       </defs>
       <use xlink:href="#DejaVuSans-36"/>
       <use xlink:href="#DejaVuSans-30" transform="translate(63.623047 0)"/>
      </g>
     </g>
    </g>
    <g id="ytick_5">
     <g id="line2d_21">
      <path d="M 46.965625 104.9264 
L 359.317692 104.9264 
" clip-path="url(#p8388f93b9e)" style="fill: none; stroke: #b0b0b0; stroke-opacity: 0.25; stroke-width: 0.8; stroke-linecap: square"/>
     </g>
     <g id="line2d_22">
      <g>
       <use xlink:href="#m8b846c2393" x="46.965625" y="104.9264" style="stroke: #000000; stroke-width: 0.8"/>
      </g>
     </g>
     <g id="text_12">
      <!-- 80 -->
      <g transform="translate(27.240625 108.725619) scale(0.1 -0.1)">
       <defs>
        <path id="DejaVuSans-38" d="M 2034 2216 
Q 1584 2216 1326 1975 
Q 1069 1734 1069 1313 
Q 1069 891 1326 650 
Q 1584 409 2034 409 
Q 2484 409 2743 651 
Q 3003 894 3003 1313 
Q 3003 1734 2745 1975 
Q 2488 2216 2034 2216 
z
M 1403 2484 
Q 997 2584 770 2862 
Q 544 3141 544 3541 
Q 544 4100 942 4425 
Q 1341 4750 2034 4750 
Q 2731 4750 3128 4425 
Q 3525 4100 3525 3541 
Q 3525 3141 3298 2862 
Q 3072 2584 2669 2484 
Q 3125 2378 3379 2068 
Q 3634 1759 3634 1313 
Q 3634 634 3220 271 
Q 2806 -91 2034 -91 
Q 1263 -91 848 271 
Q 434 634 434 1313 
Q 434 1759 690 2068 
Q 947 2378 1403 2484 
z
M 1172 3481 
Q 1172 3119 1398 2916 
Q 1625 2713 2034 2713 
Q 2441 2713 2670 2916 
Q 2900 3119 2900 3481 
Q 2900 3844 2670 4047 
Q 2441 4250 2034 4250 
Q 1625 4250 1398 4047 
Q 1172 3844 1172 3481 
z
" transform="scale(0.015625)"/>
       </defs>
       <use xlink:href="#DejaVuSans-38"/>
       <use xlink:href="#DejaVuSans-30" transform="translate(63.623047 0)"/>
      </g>
     </g>
    </g>
    <g id="ytick_6">
     <g id="line2d_23">
      <path d="M 46.965625 58.704 
L 359.317692 58.704 
" clip-path="url(#p8388f93b9e)" style="fill: none; stroke: #b0b0b0; stroke-opacity: 0.25; stroke-width: 0.8; stroke-linecap: square"/>
     </g>
     <g id="line2d_24">
      <g>
       <use xlink:href="#m8b846c2393" x="46.965625" y="58.704" style="stroke: #000000; stroke-width: 0.8"/>
      </g>
     </g>
     <g id="text_13">
      <!-- 100 -->
      <g transform="translate(20.878125 62.503219) scale(0.1 -0.1)">
       <use xlink:href="#DejaVuSans-31"/>
       <use xlink:href="#DejaVuSans-30" transform="translate(63.623047 0)"/>
       <use xlink:href="#DejaVuSans-30" transform="translate(127.246094 0)"/>
      </g>
     </g>
    </g>
    <g id="text_14">
     <!-- Coverage among 1-year-olds (%) -->
     <g transform="translate(14.798438 256.832656) rotate(-90) scale(0.1 -0.1)">
      <defs>
       <path id="DejaVuSans-43" d="M 4122 4306 
L 4122 3641 
Q 3803 3938 3442 4084 
Q 3081 4231 2675 4231 
Q 1875 4231 1450 3742 
Q 1025 3253 1025 2328 
Q 1025 1406 1450 917 
Q 1875 428 2675 428 
Q 3081 428 3442 575 
Q 3803 722 4122 1019 
L 4122 359 
Q 3791 134 3420 21 
Q 3050 -91 2638 -91 
Q 1578 -91 968 557 
Q 359 1206 359 2328 
Q 359 3453 968 4101 
Q 1578 4750 2638 4750 
Q 3056 4750 3426 4639 
Q 3797 4528 4122 4306 
z
" transform="scale(0.015625)"/>
       <path id="DejaVuSans-6f" d="M 1959 3097 
Q 1497 3097 1228 2736 
Q 959 2375 959 1747 
Q 959 1119 1226 758 
Q 1494 397 1959 397 
Q 2419 397 2687 759 
Q 2956 1122 2956 1747 
Q 2956 2369 2687 2733 
Q 2419 3097 1959 3097 
z
M 1959 3584 
Q 2709 3584 3137 3096 
Q 3566 2609 3566 1747 
Q 3566 888 3137 398 
Q 2709 -91 1959 -91 
Q 1206 -91 779 398 
Q 353 888 353 1747 
Q 353 2609 779 3096 
Q 1206 3584 1959 3584 
z
" transform="scale(0.015625)"/>
       <path id="DejaVuSans-76" d="M 191 3500 
L 800 3500 
L 1894 563 
L 2988 3500 
L 3597 3500 
L 2284 0 
L 1503 0 
L 191 3500 
z
" transform="scale(0.015625)"/>
       <path id="DejaVuSans-67" d="M 2906 1791 
Q 2906 2416 2648 2759 
Q 2391 3103 1925 3103 
Q 1463 3103 1205 2759 
Q 947 2416 947 1791 
Q 947 1169 1205 825 
Q 1463 481 1925 481 
Q 2391 481 2648 825 
Q 2906 1169 2906 1791 
z
M 3481 434 
Q 3481 -459 3084 -895 
Q 2688 -1331 1869 -1331 
Q 1566 -1331 1297 -1286 
Q 1028 -1241 775 -1147 
L 775 -588 
Q 1028 -725 1275 -790 
Q 1522 -856 1778 -856 
Q 2344 -856 2625 -561 
Q 2906 -266 2906 331 
L 2906 616 
Q 2728 306 2450 153 
Q 2172 0 1784 0 
Q 1141 0 747 490 
Q 353 981 353 1791 
Q 353 2603 747 3093 
Q 1141 3584 1784 3584 
Q 2172 3584 2450 3431 
Q 2728 3278 2906 2969 
L 2906 3500 
L 3481 3500 
L 3481 434 
z
" transform="scale(0.015625)"/>
       <path id="DejaVuSans-20" transform="scale(0.015625)"/>
       <path id="DejaVuSans-6d" d="M 3328 2828 
Q 3544 3216 3844 3400 
Q 4144 3584 4550 3584 
Q 5097 3584 5394 3201 
Q 5691 2819 5691 2113 
L 5691 0 
L 5113 0 
L 5113 2094 
Q 5113 2597 4934 2840 
Q 4756 3084 4391 3084 
Q 3944 3084 3684 2787 
Q 3425 2491 3425 1978 
L 3425 0 
L 2847 0 
L 2847 2094 
Q 2847 2600 2669 2842 
Q 2491 3084 2119 3084 
Q 1678 3084 1418 2786 
Q 1159 2488 1159 1978 
L 1159 0 
L 581 0 
L 581 3500 
L 1159 3500 
L 1159 2956 
Q 1356 3278 1631 3431 
Q 1906 3584 2284 3584 
Q 2666 3584 2933 3390 
Q 3200 3197 3328 2828 
z
" transform="scale(0.015625)"/>
       <path id="DejaVuSans-6e" d="M 3513 2113 
L 3513 0 
L 2938 0 
L 2938 2094 
Q 2938 2591 2744 2837 
Q 2550 3084 2163 3084 
Q 1697 3084 1428 2787 
Q 1159 2491 1159 1978 
L 1159 0 
L 581 0 
L 581 3500 
L 1159 3500 
L 1159 2956 
Q 1366 3272 1645 3428 
Q 1925 3584 2291 3584 
Q 2894 3584 3203 3211 
Q 3513 2838 3513 2113 
z
" transform="scale(0.015625)"/>
       <path id="DejaVuSans-2d" d="M 313 2009 
L 1997 2009 
L 1997 1497 
L 313 1497 
L 313 2009 
z
" transform="scale(0.015625)"/>
       <path id="DejaVuSans-79" d="M 2059 -325 
Q 1816 -950 1584 -1140 
Q 1353 -1331 966 -1331 
L 506 -1331 
L 506 -850 
L 844 -850 
Q 1081 -850 1212 -737 
Q 1344 -625 1503 -206 
L 1606 56 
L 191 3500 
L 800 3500 
L 1894 763 
L 2988 3500 
L 3597 3500 
L 2059 -325 
z
" transform="scale(0.015625)"/>
       <path id="DejaVuSans-6c" d="M 603 4863 
L 1178 4863 
L 1178 0 
L 603 0 
L 603 4863 
z
" transform="scale(0.015625)"/>
       <path id="DejaVuSans-64" d="M 2906 2969 
L 2906 4863 
L 3481 4863 
L 3481 0 
L 2906 0 
L 2906 525 
Q 2725 213 2448 61 
Q 2172 -91 1784 -91 
Q 1150 -91 751 415 
Q 353 922 353 1747 
Q 353 2572 751 3078 
Q 1150 3584 1784 3584 
Q 2172 3584 2448 3432 
Q 2725 3281 2906 2969 
z
M 947 1747 
Q 947 1113 1208 752 
Q 1469 391 1925 391 
Q 2381 391 2643 752 
Q 2906 1113 2906 1747 
Q 2906 2381 2643 2742 
Q 2381 3103 1925 3103 
Q 1469 3103 1208 2742 
Q 947 2381 947 1747 
z
" transform="scale(0.015625)"/>
       <path id="DejaVuSans-73" d="M 2834 3397 
L 2834 2853 
Q 2591 2978 2328 3040 
Q 2066 3103 1784 3103 
Q 1356 3103 1142 2972 
Q 928 2841 928 2578 
Q 928 2378 1081 2264 
Q 1234 2150 1697 2047 
L 1894 2003 
Q 2506 1872 2764 1633 
Q 3022 1394 3022 966 
Q 3022 478 2636 193 
Q 2250 -91 1575 -91 
Q 1294 -91 989 -36 
Q 684 19 347 128 
L 347 722 
Q 666 556 975 473 
Q 1284 391 1588 391 
Q 1994 391 2212 530 
Q 2431 669 2431 922 
Q 2431 1156 2273 1281 
Q 2116 1406 1581 1522 
L 1381 1569 
Q 847 1681 609 1914 
Q 372 2147 372 2553 
Q 372 3047 722 3315 
Q 1072 3584 1716 3584 
Q 2034 3584 2315 3537 
Q 2597 3491 2834 3397 
z
" transform="scale(0.015625)"/>
       <path id="DejaVuSans-28" d="M 1984 4856 
Q 1566 4138 1362 3434 
Q 1159 2731 1159 2009 
Q 1159 1288 1364 580 
Q 1569 -128 1984 -844 
L 1484 -844 
Q 1016 -109 783 600 
Q 550 1309 550 2009 
Q 550 2706 781 3412 
Q 1013 4119 1484 4856 
L 1984 4856 
z
" transform="scale(0.015625)"/>
       <path id="DejaVuSans-25" d="M 4653 2053 
Q 4381 2053 4226 1822 
Q 4072 1591 4072 1178 
Q 4072 772 4226 539 
Q 4381 306 4653 306 
Q 4919 306 5073 539 
Q 5228 772 5228 1178 
Q 5228 1588 5073 1820 
Q 4919 2053 4653 2053 
z
M 4653 2450 
Q 5147 2450 5437 2106 
Q 5728 1763 5728 1178 
Q 5728 594 5436 251 
Q 5144 -91 4653 -91 
Q 4153 -91 3862 251 
Q 3572 594 3572 1178 
Q 3572 1766 3864 2108 
Q 4156 2450 4653 2450 
z
M 1428 4353 
Q 1159 4353 1004 4120 
Q 850 3888 850 3481 
Q 850 3069 1003 2837 
Q 1156 2606 1428 2606 
Q 1700 2606 1854 2837 
Q 2009 3069 2009 3481 
Q 2009 3884 1853 4118 
Q 1697 4353 1428 4353 
z
M 4250 4750 
L 4750 4750 
L 1831 -91 
L 1331 -91 
L 4250 4750 
z
M 1428 4750 
Q 1922 4750 2215 4408 
Q 2509 4066 2509 3481 
Q 2509 2891 2217 2550 
Q 1925 2209 1428 2209 
Q 931 2209 642 2551 
Q 353 2894 353 3481 
Q 353 4063 643 4406 
Q 934 4750 1428 4750 
z
" transform="scale(0.015625)"/>
       <path id="DejaVuSans-29" d="M 513 4856 
L 1013 4856 
Q 1481 4119 1714 3412 
Q 1947 2706 1947 2009 
Q 1947 1309 1714 600 
Q 1481 -109 1013 -844 
L 513 -844 
Q 928 -128 1133 580 
Q 1338 1288 1338 2009 
Q 1338 2731 1133 3434 
Q 928 4138 513 4856 
z
" transform="scale(0.015625)"/>
      </defs>
      <use xlink:href="#DejaVuSans-43"/>
      <use xlink:href="#DejaVuSans-6f" transform="translate(69.824219 0)"/>
      <use xlink:href="#DejaVuSans-76" transform="translate(131.005859 0)"/>
      <use xlink:href="#DejaVuSans-65" transform="translate(190.185547 0)"/>
      <use xlink:href="#DejaVuSans-72" transform="translate(251.708984 0)"/>
      <use xlink:href="#DejaVuSans-61" transform="translate(292.822266 0)"/>
      <use xlink:href="#DejaVuSans-67" transform="translate(354.101562 0)"/>
      <use xlink:href="#DejaVuSans-65" transform="translate(417.578125 0)"/>
      <use xlink:href="#DejaVuSans-20" transform="translate(479.101562 0)"/>
      <use xlink:href="#DejaVuSans-61" transform="translate(510.888672 0)"/>
      <use xlink:href="#DejaVuSans-6d" transform="translate(572.167969 0)"/>
      <use xlink:href="#DejaVuSans-6f" transform="translate(669.580078 0)"/>
      <use xlink:href="#DejaVuSans-6e" transform="translate(730.761719 0)"/>
      <use xlink:href="#DejaVuSans-67" transform="translate(794.140625 0)"/>
      <use xlink:href="#DejaVuSans-20" transform="translate(857.617188 0)"/>
      <use xlink:href="#DejaVuSans-31" transform="translate(889.404297 0)"/>
      <use xlink:href="#DejaVuSans-2d" transform="translate(953.027344 0)"/>
      <use xlink:href="#DejaVuSans-79" transform="translate(987.361328 0)"/>
      <use xlink:href="#DejaVuSans-65" transform="translate(1046.541016 0)"/>
      <use xlink:href="#DejaVuSans-61" transform="translate(1108.064453 0)"/>
      <use xlink:href="#DejaVuSans-72" transform="translate(1169.34375 0)"/>
      <use xlink:href="#DejaVuSans-2d" transform="translate(1204.082031 0)"/>
      <use xlink:href="#DejaVuSans-6f" transform="translate(1242.041016 0)"/>
      <use xlink:href="#DejaVuSans-6c" transform="translate(1303.222656 0)"/>
      <use xlink:href="#DejaVuSans-64" transform="translate(1331.005859 0)"/>
      <use xlink:href="#DejaVuSans-73" transform="translate(1394.482422 0)"/>
      <use xlink:href="#DejaVuSans-20" transform="translate(1446.582031 0)"/>
      <use xlink:href="#DejaVuSans-28" transform="translate(1478.369141 0)"/>
      <use xlink:href="#DejaVuSans-25" transform="translate(1517.382812 0)"/>
      <use xlink:href="#DejaVuSans-29" transform="translate(1612.402344 0)"/>
     </g>
    </g>
   </g>
   <g id="line2d_25">
    <path d="M 61.163446 185.8156 
L 72.994964 199.68232 
L 84.826482 199.68232 
L 96.657999 197.3712 
L 108.489517 193.90452 
L 120.321035 193.90452 
L 132.152552 191.5934 
L 143.98407 180.0378 
L 155.815588 190.43784 
L 167.647105 182.34892 
L 179.478623 182.34892 
L 191.310141 184.66004 
L 203.141658 126.88204 
L 214.973176 124.57092 
L 226.804694 106.08196 
L 238.636211 114.17088 
L 250.467729 100.30416 
L 262.299247 84.12632 
L 274.130764 87.593 
L 285.962282 87.593 
L 297.7938 96.83748 
L 309.625317 85.28188 
L 321.456835 82.97076 
L 333.288353 94.52636 
L 345.11987 94.52636 
" clip-path="url(#p8388f93b9e)" style="fill: none; stroke: #d55e00; stroke-width: 2; stroke-linecap: square"/>
   </g>
   <g id="line2d_26">
    <path d="M 61.163446 86.43744 
L 72.994964 102.61528 
L 84.826482 104.9264 
L 96.657999 104.9264 
L 108.489517 102.61528 
L 120.321035 93.3708 
L 132.152552 95.68192 
L 143.98407 72.57072 
L 155.815588 77.19296 
L 167.647105 72.57072 
L 179.478623 72.57072 
L 191.310141 79.50408 
L 203.141658 79.50408 
L 214.973176 79.50408 
L 226.804694 72.57072 
L 238.636211 86.43744 
L 250.467729 70.2596 
L 262.299247 72.57072 
L 274.130764 63.32624 
L 285.962282 65.63736 
L 297.7938 77.19296 
L 309.625317 63.32624 
L 321.456835 81.8152 
L 333.288353 79.50408 
L 345.11987 79.50408 
" clip-path="url(#p8388f93b9e)" style="fill: none; stroke: #009e73; stroke-width: 2; stroke-linecap: square"/>
   </g>
   <g id="line2d_27">
    <path d="M 46.965625 104.9264 
L 359.317692 104.9264 
" clip-path="url(#p8388f93b9e)" style="fill: none; stroke-dasharray: 2.96,1.28; stroke-dashoffset: 0; stroke: #808080; stroke-width: 0.8"/>
   </g>
   <g id="patch_3">
    <path d="M 46.965625 289.816 
L 46.965625 58.704 
" style="fill: none; stroke: #000000; stroke-width: 0.8; stroke-linejoin: miter; stroke-linecap: square"/>
   </g>
   <g id="patch_4">
    <path d="M 359.317692 289.816 
L 359.317692 58.704 
" style="fill: none; stroke: #000000; stroke-width: 0.8; stroke-linejoin: miter; stroke-linecap: square"/>
   </g>
   <g id="patch_5">
    <path d="M 46.965625 289.816 
L 359.317692 289.816 
" style="fill: none; stroke: #000000; stroke-width: 0.8; stroke-linejoin: miter; stroke-linecap: square"/>
   </g>
   <g id="patch_6">
    <path d="M 46.965625 58.704 
L 359.317692 58.704 
" style="fill: none; stroke: #000000; stroke-width: 0.8; stroke-linejoin: miter; stroke-linecap: square"/>
   </g>
   <g id="text_15">
    <!-- Measles (MCV1) -->
    <g style="fill: #d55e00" transform="translate(349.11987 96.73386) scale(0.08 -0.08)">
     <defs>
      <path id="DejaVuSans-4d" d="M 628 4666 
L 1569 4666 
L 2759 1491 
L 3956 4666 
L 4897 4666 
L 4897 0 
L 4281 0 
L 4281 4097 
L 3078 897 
L 2444 897 
L 1241 4097 
L 1241 0 
L 628 0 
L 628 4666 
z
" transform="scale(0.015625)"/>
      <path id="DejaVuSans-56" d="M 1831 0 
L 50 4666 
L 709 4666 
L 2188 738 
L 3669 4666 
L 4325 4666 
L 2547 0 
L 1831 0 
z
" transform="scale(0.015625)"/>
     </defs>
     <use xlink:href="#DejaVuSans-4d"/>
     <use xlink:href="#DejaVuSans-65" transform="translate(86.279297 0)"/>
     <use xlink:href="#DejaVuSans-61" transform="translate(147.802734 0)"/>
     <use xlink:href="#DejaVuSans-73" transform="translate(209.082031 0)"/>
     <use xlink:href="#DejaVuSans-6c" transform="translate(261.181641 0)"/>
     <use xlink:href="#DejaVuSans-65" transform="translate(288.964844 0)"/>
     <use xlink:href="#DejaVuSans-73" transform="translate(350.488281 0)"/>
     <use xlink:href="#DejaVuSans-20" transform="translate(402.587891 0)"/>
     <use xlink:href="#DejaVuSans-28" transform="translate(434.375 0)"/>
     <use xlink:href="#DejaVuSans-4d" transform="translate(473.388672 0)"/>
     <use xlink:href="#DejaVuSans-43" transform="translate(559.667969 0)"/>
     <use xlink:href="#DejaVuSans-56" transform="translate(629.492188 0)"/>
     <use xlink:href="#DejaVuSans-31" transform="translate(697.900391 0)"/>
     <use xlink:href="#DejaVuSans-29" transform="translate(761.523438 0)"/>
    </g>
   </g>
   <g id="text_16">
    <!-- Polio (Pol3) -->
    <g style="fill: #009e73" transform="translate(349.11987 81.71158) scale(0.08 -0.08)">
     <defs>
      <path id="DejaVuSans-50" d="M 1259 4147 
L 1259 2394 
L 2053 2394 
Q 2494 2394 2734 2622 
Q 2975 2850 2975 3272 
Q 2975 3691 2734 3919 
Q 2494 4147 2053 4147 
L 1259 4147 
z
M 628 4666 
L 2053 4666 
Q 2838 4666 3239 4311 
Q 3641 3956 3641 3272 
Q 3641 2581 3239 2228 
Q 2838 1875 2053 1875 
L 1259 1875 
L 1259 0 
L 628 0 
L 628 4666 
z
" transform="scale(0.015625)"/>
      <path id="DejaVuSans-69" d="M 603 3500 
L 1178 3500 
L 1178 0 
L 603 0 
L 603 3500 
z
M 603 4863 
L 1178 4863 
L 1178 4134 
L 603 4134 
L 603 4863 
z
" transform="scale(0.015625)"/>
      <path id="DejaVuSans-33" d="M 2597 2516 
Q 3050 2419 3304 2112 
Q 3559 1806 3559 1356 
Q 3559 666 3084 287 
Q 2609 -91 1734 -91 
Q 1441 -91 1130 -33 
Q 819 25 488 141 
L 488 750 
Q 750 597 1062 519 
Q 1375 441 1716 441 
Q 2309 441 2620 675 
Q 2931 909 2931 1356 
Q 2931 1769 2642 2001 
Q 2353 2234 1838 2234 
L 1294 2234 
L 1294 2753 
L 1863 2753 
Q 2328 2753 2575 2939 
Q 2822 3125 2822 3475 
Q 2822 3834 2567 4026 
Q 2313 4219 1838 4219 
Q 1578 4219 1281 4162 
Q 984 4106 628 3988 
L 628 4550 
Q 988 4650 1302 4700 
Q 1616 4750 1894 4750 
Q 2613 4750 3031 4423 
Q 3450 4097 3450 3541 
Q 3450 3153 3228 2886 
Q 3006 2619 2597 2516 
z
" transform="scale(0.015625)"/>
     </defs>
     <use xlink:href="#DejaVuSans-50"/>
     <use xlink:href="#DejaVuSans-6f" transform="translate(56.677734 0)"/>
     <use xlink:href="#DejaVuSans-6c" transform="translate(117.859375 0)"/>
     <use xlink:href="#DejaVuSans-69" transform="translate(145.642578 0)"/>
     <use xlink:href="#DejaVuSans-6f" transform="translate(173.425781 0)"/>
     <use xlink:href="#DejaVuSans-20" transform="translate(234.607422 0)"/>
     <use xlink:href="#DejaVuSans-28" transform="translate(266.394531 0)"/>
     <use xlink:href="#DejaVuSans-50" transform="translate(305.408203 0)"/>
     <use xlink:href="#DejaVuSans-6f" transform="translate(362.085938 0)"/>
     <use xlink:href="#DejaVuSans-6c" transform="translate(423.267578 0)"/>
     <use xlink:href="#DejaVuSans-33" transform="translate(451.050781 0)"/>
     <use xlink:href="#DejaVuSans-29" transform="translate(514.673828 0)"/>
    </g>
   </g>
   <g id="text_17">
    <!-- A. Ghana national EPI coverage rose then plateaued -->
    <g transform="translate(46.965625 52.704) scale(0.09 -0.09)">
     <defs>
      <path id="DejaVuSans-41" d="M 2188 4044 
L 1331 1722 
L 3047 1722 
L 2188 4044 
z
M 1831 4666 
L 2547 4666 
L 4325 0 
L 3669 0 
L 3244 1197 
L 1141 1197 
L 716 0 
L 50 0 
L 1831 4666 
z
" transform="scale(0.015625)"/>
      <path id="DejaVuSans-2e" d="M 684 794 
L 1344 794 
L 1344 0 
L 684 0 
L 684 794 
z
" transform="scale(0.015625)"/>
      <path id="DejaVuSans-47" d="M 3809 666 
L 3809 1919 
L 2778 1919 
L 2778 2438 
L 4434 2438 
L 4434 434 
Q 4069 175 3628 42 
Q 3188 -91 2688 -91 
Q 1594 -91 976 548 
Q 359 1188 359 2328 
Q 359 3472 976 4111 
Q 1594 4750 2688 4750 
Q 3144 4750 3555 4637 
Q 3966 4525 4313 4306 
L 4313 3634 
Q 3963 3931 3569 4081 
Q 3175 4231 2741 4231 
Q 1884 4231 1454 3753 
Q 1025 3275 1025 2328 
Q 1025 1384 1454 906 
Q 1884 428 2741 428 
Q 3075 428 3337 486 
Q 3600 544 3809 666 
z
" transform="scale(0.015625)"/>
      <path id="DejaVuSans-68" d="M 3513 2113 
L 3513 0 
L 2938 0 
L 2938 2094 
Q 2938 2591 2744 2837 
Q 2550 3084 2163 3084 
Q 1697 3084 1428 2787 
Q 1159 2491 1159 1978 
L 1159 0 
L 581 0 
L 581 4863 
L 1159 4863 
L 1159 2956 
Q 1366 3272 1645 3428 
Q 1925 3584 2291 3584 
Q 2894 3584 3203 3211 
Q 3513 2838 3513 2113 
z
" transform="scale(0.015625)"/>
      <path id="DejaVuSans-74" d="M 1172 4494 
L 1172 3500 
L 2356 3500 
L 2356 3053 
L 1172 3053 
L 1172 1153 
Q 1172 725 1289 603 
Q 1406 481 1766 481 
L 2356 481 
L 2356 0 
L 1766 0 
Q 1100 0 847 248 
Q 594 497 594 1153 
L 594 3053 
L 172 3053 
L 172 3500 
L 594 3500 
L 594 4494 
L 1172 4494 
z
" transform="scale(0.015625)"/>
      <path id="DejaVuSans-45" d="M 628 4666 
L 3578 4666 
L 3578 4134 
L 1259 4134 
L 1259 2753 
L 3481 2753 
L 3481 2222 
L 1259 2222 
L 1259 531 
L 3634 531 
L 3634 0 
L 628 0 
L 628 4666 
z
" transform="scale(0.015625)"/>
      <path id="DejaVuSans-49" d="M 628 4666 
L 1259 4666 
L 1259 0 
L 628 0 
L 628 4666 
z
" transform="scale(0.015625)"/>
      <path id="DejaVuSans-63" d="M 3122 3366 
L 3122 2828 
Q 2878 2963 2633 3030 
Q 2388 3097 2138 3097 
Q 1578 3097 1268 2742 
Q 959 2388 959 1747 
Q 959 1106 1268 751 
Q 1578 397 2138 397 
Q 2388 397 2633 464 
Q 2878 531 3122 666 
L 3122 134 
Q 2881 22 2623 -34 
Q 2366 -91 2075 -91 
Q 1284 -91 818 406 
Q 353 903 353 1747 
Q 353 2603 823 3093 
Q 1294 3584 2113 3584 
Q 2378 3584 2631 3529 
Q 2884 3475 3122 3366 
z
" transform="scale(0.015625)"/>
      <path id="DejaVuSans-70" d="M 1159 525 
L 1159 -1331 
L 581 -1331 
L 581 3500 
L 1159 3500 
L 1159 2969 
Q 1341 3281 1617 3432 
Q 1894 3584 2278 3584 
Q 2916 3584 3314 3078 
Q 3713 2572 3713 1747 
Q 3713 922 3314 415 
Q 2916 -91 2278 -91 
Q 1894 -91 1617 61 
Q 1341 213 1159 525 
z
M 3116 1747 
Q 3116 2381 2855 2742 
Q 2594 3103 2138 3103 
Q 1681 3103 1420 2742 
Q 1159 2381 1159 1747 
Q 1159 1113 1420 752 
Q 1681 391 2138 391 
Q 2594 391 2855 752 
Q 3116 1113 3116 1747 
z
" transform="scale(0.015625)"/>
      <path id="DejaVuSans-75" d="M 544 1381 
L 544 3500 
L 1119 3500 
L 1119 1403 
Q 1119 906 1312 657 
Q 1506 409 1894 409 
Q 2359 409 2629 706 
Q 2900 1003 2900 1516 
L 2900 3500 
L 3475 3500 
L 3475 0 
L 2900 0 
L 2900 538 
Q 2691 219 2414 64 
Q 2138 -91 1772 -91 
Q 1169 -91 856 284 
Q 544 659 544 1381 
z
M 1991 3584 
L 1991 3584 
z
" transform="scale(0.015625)"/>
     </defs>
     <use xlink:href="#DejaVuSans-41"/>
     <use xlink:href="#DejaVuSans-2e" transform="translate(66.658203 0)"/>
     <use xlink:href="#DejaVuSans-20" transform="translate(98.445312 0)"/>
     <use xlink:href="#DejaVuSans-47" transform="translate(130.232422 0)"/>
     <use xlink:href="#DejaVuSans-68" transform="translate(207.722656 0)"/>
     <use xlink:href="#DejaVuSans-61" transform="translate(271.101562 0)"/>
     <use xlink:href="#DejaVuSans-6e" transform="translate(332.380859 0)"/>
     <use xlink:href="#DejaVuSans-61" transform="translate(395.759766 0)"/>
     <use xlink:href="#DejaVuSans-20" transform="translate(457.039062 0)"/>
     <use xlink:href="#DejaVuSans-6e" transform="translate(488.826172 0)"/>
     <use xlink:href="#DejaVuSans-61" transform="translate(552.205078 0)"/>
     <use xlink:href="#DejaVuSans-74" transform="translate(613.484375 0)"/>
     <use xlink:href="#DejaVuSans-69" transform="translate(652.693359 0)"/>
     <use xlink:href="#DejaVuSans-6f" transform="translate(680.476562 0)"/>
     <use xlink:href="#DejaVuSans-6e" transform="translate(741.658203 0)"/>
     <use xlink:href="#DejaVuSans-61" transform="translate(805.037109 0)"/>
     <use xlink:href="#DejaVuSans-6c" transform="translate(866.316406 0)"/>
     <use xlink:href="#DejaVuSans-20" transform="translate(894.099609 0)"/>
     <use xlink:href="#DejaVuSans-45" transform="translate(925.886719 0)"/>
     <use xlink:href="#DejaVuSans-50" transform="translate(989.070312 0)"/>
     <use xlink:href="#DejaVuSans-49" transform="translate(1049.373047 0)"/>
     <use xlink:href="#DejaVuSans-20" transform="translate(1078.865234 0)"/>
     <use xlink:href="#DejaVuSans-63" transform="translate(1110.652344 0)"/>
     <use xlink:href="#DejaVuSans-6f" transform="translate(1165.632812 0)"/>
     <use xlink:href="#DejaVuSans-76" transform="translate(1226.814453 0)"/>
     <use xlink:href="#DejaVuSans-65" transform="translate(1285.994141 0)"/>
     <use xlink:href="#DejaVuSans-72" transform="translate(1347.517578 0)"/>
     <use xlink:href="#DejaVuSans-61" transform="translate(1388.630859 0)"/>
     <use xlink:href="#DejaVuSans-67" transform="translate(1449.910156 0)"/>
     <use xlink:href="#DejaVuSans-65" transform="translate(1513.386719 0)"/>
     <use xlink:href="#DejaVuSans-20" transform="translate(1574.910156 0)"/>
     <use xlink:href="#DejaVuSans-72" transform="translate(1606.697266 0)"/>
     <use xlink:href="#DejaVuSans-6f" transform="translate(1645.560547 0)"/>
     <use xlink:href="#DejaVuSans-73" transform="translate(1706.742188 0)"/>
     <use xlink:href="#DejaVuSans-65" transform="translate(1758.841797 0)"/>
     <use xlink:href="#DejaVuSans-20" transform="translate(1820.365234 0)"/>
     <use xlink:href="#DejaVuSans-74" transform="translate(1852.152344 0)"/>
     <use xlink:href="#DejaVuSans-68" transform="translate(1891.361328 0)"/>
     <use xlink:href="#DejaVuSans-65" transform="translate(1954.740234 0)"/>
     <use xlink:href="#DejaVuSans-6e" transform="translate(2016.263672 0)"/>
     <use xlink:href="#DejaVuSans-20" transform="translate(2079.642578 0)"/>
     <use xlink:href="#DejaVuSans-70" transform="translate(2111.429688 0)"/>
     <use xlink:href="#DejaVuSans-6c" transform="translate(2174.90625 0)"/>
     <use xlink:href="#DejaVuSans-61" transform="translate(2202.689453 0)"/>
     <use xlink:href="#DejaVuSans-74" transform="translate(2263.96875 0)"/>
     <use xlink:href="#DejaVuSans-65" transform="translate(2303.177734 0)"/>
     <use xlink:href="#DejaVuSans-61" transform="translate(2364.701172 0)"/>
     <use xlink:href="#DejaVuSans-75" transform="translate(2425.980469 0)"/>
     <use xlink:href="#DejaVuSans-65" transform="translate(2489.359375 0)"/>
     <use xlink:href="#DejaVuSans-64" transform="translate(2550.882812 0)"/>
    </g>
   </g>
  </g>
  <g id="axes_2">
   <g id="patch_7">
    <path d="M 464.943558 289.816 
L 777.295625 289.816 
L 777.295625 58.704 
L 464.943558 58.704 
z
" style="fill: #ffffff"/>
   </g>
   <g id="FillBetweenPolyCollection_1">
    <path d="M 479.14138 48389.259671 
L 479.14138 78.252752 
L 484.820508 69.209091 
L 490.499636 70.653937 
L 496.178765 74.664263 
L 501.857893 74.869151 
L 507.537022 78.833951 
L 513.21615 80.325671 
L 518.895279 96.296887 
L 524.574407 81.109832 
L 530.253536 97.362744 
L 535.932664 95.39268 
L 541.611793 85.505358 
L 547.290921 122.251543 
L 552.97005 105.482159 
L 558.649178 95.24924 
L 564.328307 109.960308 
L 570.007435 99.984727 
L 575.686564 113.185049 
L 581.365692 95.520899 
L 587.044821 98.48897 
L 592.723949 98.380768 
L 598.403078 95.342338 
L 604.082206 98.711945 
L 609.761335 96.966797 
L 615.440463 106.737382 
L 621.119592 114.632857 
L 626.79872 106.977642 
L 632.477849 118.200126 
L 638.156977 120.125165 
L 643.836106 158.676398 
L 649.515234 231.238368 
L 655.194363 189.879734 
L 660.873491 190.612358 
L 666.55262 279.310909 
L 672.231748 224.716722 
L 677.910877 220.365795 
L 683.590005 181.785819 
L 689.269133 216.767091 
L 694.948262 162.519482 
L 700.62739 196.355037 
L 706.306519 216.082517 
L 711.985647 251.2569 
L 717.664776 244.362233 
L 723.343904 255.245682 
L 729.023033 243.096534 
L 734.702161 167.445232 
L 740.38129 223.242394 
L 746.060418 234.225976 
L 751.739547 191.893597 
L 757.418675 155.275851 
L 763.097804 158.622631 
L 763.097804 48389.259671 
L 763.097804 48389.259671 
L 757.418675 48389.259671 
L 751.739547 48389.259671 
L 746.060418 48389.259671 
L 740.38129 48389.259671 
L 734.702161 48389.259671 
L 729.023033 48389.259671 
L 723.343904 48389.259671 
L 717.664776 48389.259671 
L 711.985647 48389.259671 
L 706.306519 48389.259671 
L 700.62739 48389.259671 
L 694.948262 48389.259671 
L 689.269133 48389.259671 
L 683.590005 48389.259671 
L 677.910877 48389.259671 
L 672.231748 48389.259671 
L 666.55262 48389.259671 
L 660.873491 48389.259671 
L 655.194363 48389.259671 
L 649.515234 48389.259671 
L 643.836106 48389.259671 
L 638.156977 48389.259671 
L 632.477849 48389.259671 
L 626.79872 48389.259671 
L 621.119592 48389.259671 
L 615.440463 48389.259671 
L 609.761335 48389.259671 
L 604.082206 48389.259671 
L 598.403078 48389.259671 
L 592.723949 48389.259671 
L 587.044821 48389.259671 
L 581.365692 48389.259671 
L 575.686564 48389.259671 
L 570.007435 48389.259671 
L 564.328307 48389.259671 
L 558.649178 48389.259671 
L 552.97005 48389.259671 
L 547.290921 48389.259671 
L 541.611793 48389.259671 
L 535.932664 48389.259671 
L 530.253536 48389.259671 
L 524.574407 48389.259671 
L 518.895279 48389.259671 
L 513.21615 48389.259671 
L 507.537022 48389.259671 
L 501.857893 48389.259671 
L 496.178765 48389.259671 
L 490.499636 48389.259671 
L 484.820508 48389.259671 
L 479.14138 48389.259671 
z
" clip-path="url(#pfa296f85aa)" style="fill: #cc79a7; fill-opacity: 0.12; stroke: #cc79a7; stroke-opacity: 0.12"/>
   </g>
   <g id="matplotlib.axis_3">
    <g id="xtick_7">
     <g id="line2d_28">
      <path d="M 513.21615 289.816 
L 513.21615 58.704 
" clip-path="url(#pfa296f85aa)" style="fill: none; stroke: #b0b0b0; stroke-opacity: 0.25; stroke-width: 0.8; stroke-linecap: square"/>
     </g>
     <g id="line2d_29">
      <g>
       <use xlink:href="#mca117f39ac" x="513.21615" y="289.816" style="stroke: #000000; stroke-width: 0.8"/>
      </g>
     </g>
     <g id="text_18">
      <!-- 1980 -->
      <g transform="translate(500.49115 304.414437) scale(0.1 -0.1)">
       <defs>
        <path id="DejaVuSans-39" d="M 703 97 
L 703 672 
Q 941 559 1184 500 
Q 1428 441 1663 441 
Q 2288 441 2617 861 
Q 2947 1281 2994 2138 
Q 2813 1869 2534 1725 
Q 2256 1581 1919 1581 
Q 1219 1581 811 2004 
Q 403 2428 403 3163 
Q 403 3881 828 4315 
Q 1253 4750 1959 4750 
Q 2769 4750 3195 4129 
Q 3622 3509 3622 2328 
Q 3622 1225 3098 567 
Q 2575 -91 1691 -91 
Q 1453 -91 1209 -44 
Q 966 3 703 97 
z
M 1959 2075 
Q 2384 2075 2632 2365 
Q 2881 2656 2881 3163 
Q 2881 3666 2632 3958 
Q 2384 4250 1959 4250 
Q 1534 4250 1286 3958 
Q 1038 3666 1038 3163 
Q 1038 2656 1286 2365 
Q 1534 2075 1959 2075 
z
" transform="scale(0.015625)"/>
       </defs>
       <use xlink:href="#DejaVuSans-31"/>
       <use xlink:href="#DejaVuSans-39" transform="translate(63.623047 0)"/>
       <use xlink:href="#DejaVuSans-38" transform="translate(127.246094 0)"/>
       <use xlink:href="#DejaVuSans-30" transform="translate(190.869141 0)"/>
      </g>
     </g>
    </g>
    <g id="xtick_8">
     <g id="line2d_30">
      <path d="M 570.007435 289.816 
L 570.007435 58.704 
" clip-path="url(#pfa296f85aa)" style="fill: none; stroke: #b0b0b0; stroke-opacity: 0.25; stroke-width: 0.8; stroke-linecap: square"/>
     </g>
     <g id="line2d_31">
      <g>
       <use xlink:href="#mca117f39ac" x="570.007435" y="289.816" style="stroke: #000000; stroke-width: 0.8"/>
      </g>
     </g>
     <g id="text_19">
      <!-- 1990 -->
      <g transform="translate(557.282435 304.414437) scale(0.1 -0.1)">
       <use xlink:href="#DejaVuSans-31"/>
       <use xlink:href="#DejaVuSans-39" transform="translate(63.623047 0)"/>
       <use xlink:href="#DejaVuSans-39" transform="translate(127.246094 0)"/>
       <use xlink:href="#DejaVuSans-30" transform="translate(190.869141 0)"/>
      </g>
     </g>
    </g>
    <g id="xtick_9">
     <g id="line2d_32">
      <path d="M 626.79872 289.816 
L 626.79872 58.704 
" clip-path="url(#pfa296f85aa)" style="fill: none; stroke: #b0b0b0; stroke-opacity: 0.25; stroke-width: 0.8; stroke-linecap: square"/>
     </g>
     <g id="line2d_33">
      <g>
       <use xlink:href="#mca117f39ac" x="626.79872" y="289.816" style="stroke: #000000; stroke-width: 0.8"/>
      </g>
     </g>
     <g id="text_20">
      <!-- 2000 -->
      <g transform="translate(614.07372 304.414437) scale(0.1 -0.1)">
       <use xlink:href="#DejaVuSans-32"/>
       <use xlink:href="#DejaVuSans-30" transform="translate(63.623047 0)"/>
       <use xlink:href="#DejaVuSans-30" transform="translate(127.246094 0)"/>
       <use xlink:href="#DejaVuSans-30" transform="translate(190.869141 0)"/>
      </g>
     </g>
    </g>
    <g id="xtick_10">
     <g id="line2d_34">
      <path d="M 683.590005 289.816 
L 683.590005 58.704 
" clip-path="url(#pfa296f85aa)" style="fill: none; stroke: #b0b0b0; stroke-opacity: 0.25; stroke-width: 0.8; stroke-linecap: square"/>
     </g>
     <g id="line2d_35">
      <g>
       <use xlink:href="#mca117f39ac" x="683.590005" y="289.816" style="stroke: #000000; stroke-width: 0.8"/>
      </g>
     </g>
     <g id="text_21">
      <!-- 2010 -->
      <g transform="translate(670.865005 304.414437) scale(0.1 -0.1)">
       <use xlink:href="#DejaVuSans-32"/>
       <use xlink:href="#DejaVuSans-30" transform="translate(63.623047 0)"/>
       <use xlink:href="#DejaVuSans-31" transform="translate(127.246094 0)"/>
       <use xlink:href="#DejaVuSans-30" transform="translate(190.869141 0)"/>
      </g>
     </g>
    </g>
    <g id="xtick_11">
     <g id="line2d_36">
      <path d="M 740.38129 289.816 
L 740.38129 58.704 
" clip-path="url(#pfa296f85aa)" style="fill: none; stroke: #b0b0b0; stroke-opacity: 0.25; stroke-width: 0.8; stroke-linecap: square"/>
     </g>
     <g id="line2d_37">
      <g>
       <use xlink:href="#mca117f39ac" x="740.38129" y="289.816" style="stroke: #000000; stroke-width: 0.8"/>
      </g>
     </g>
     <g id="text_22">
      <!-- 2020 -->
      <g transform="translate(727.65629 304.414437) scale(0.1 -0.1)">
       <use xlink:href="#DejaVuSans-32"/>
       <use xlink:href="#DejaVuSans-30" transform="translate(63.623047 0)"/>
       <use xlink:href="#DejaVuSans-32" transform="translate(127.246094 0)"/>
       <use xlink:href="#DejaVuSans-30" transform="translate(190.869141 0)"/>
      </g>
     </g>
    </g>
    <g id="text_23">
     <!-- Year -->
     <g transform="translate(610.532092 318.092562) scale(0.1 -0.1)">
      <use xlink:href="#DejaVuSans-59"/>
      <use xlink:href="#DejaVuSans-65" transform="translate(47.833984 0)"/>
      <use xlink:href="#DejaVuSans-61" transform="translate(109.357422 0)"/>
      <use xlink:href="#DejaVuSans-72" transform="translate(170.636719 0)"/>
     </g>
    </g>
   </g>
   <g id="matplotlib.axis_4">
    <g id="ytick_7">
     <g id="line2d_38">
      <path d="M 464.943558 268.646076 
L 777.295625 268.646076 
" clip-path="url(#pfa296f85aa)" style="fill: none; stroke: #b0b0b0; stroke-opacity: 0.25; stroke-width: 0.8; stroke-linecap: square"/>
     </g>
     <g id="line2d_39">
      <g>
       <use xlink:href="#m8b846c2393" x="464.943558" y="268.646076" style="stroke: #000000; stroke-width: 0.8"/>
      </g>
     </g>
     <g id="text_24">
      <!-- $\mathdefault{10^{1}}$ -->
      <g transform="translate(440.343558 272.445295) scale(0.1 -0.1)">
       <use xlink:href="#DejaVuSans-31" transform="translate(0 0.684375)"/>
       <use xlink:href="#DejaVuSans-30" transform="translate(63.623047 0.684375)"/>
       <use xlink:href="#DejaVuSans-31" transform="translate(128.203125 38.965625) scale(0.7)"/>
      </g>
     </g>
    </g>
    <g id="ytick_8">
     <g id="line2d_40">
      <path d="M 464.943558 220.573535 
L 777.295625 220.573535 
" clip-path="url(#pfa296f85aa)" style="fill: none; stroke: #b0b0b0; stroke-opacity: 0.25; stroke-width: 0.8; stroke-linecap: square"/>
     </g>
     <g id="line2d_41">
      <g>
       <use xlink:href="#m8b846c2393" x="464.943558" y="220.573535" style="stroke: #000000; stroke-width: 0.8"/>
      </g>
     </g>
     <g id="text_25">
      <!-- $\mathdefault{10^{2}}$ -->
      <g transform="translate(440.343558 224.372754) scale(0.1 -0.1)">
       <use xlink:href="#DejaVuSans-31" transform="translate(0 0.765625)"/>
       <use xlink:href="#DejaVuSans-30" transform="translate(63.623047 0.765625)"/>
       <use xlink:href="#DejaVuSans-32" transform="translate(128.203125 39.046875) scale(0.7)"/>
      </g>
     </g>
    </g>
    <g id="ytick_9">
     <g id="line2d_42">
      <path d="M 464.943558 172.500994 
L 777.295625 172.500994 
" clip-path="url(#pfa296f85aa)" style="fill: none; stroke: #b0b0b0; stroke-opacity: 0.25; stroke-width: 0.8; stroke-linecap: square"/>
     </g>
     <g id="line2d_43">
      <g>
       <use xlink:href="#m8b846c2393" x="464.943558" y="172.500994" style="stroke: #000000; stroke-width: 0.8"/>
      </g>
     </g>
     <g id="text_26">
      <!-- $\mathdefault{10^{3}}$ -->
      <g transform="translate(440.343558 176.300213) scale(0.1 -0.1)">
       <use xlink:href="#DejaVuSans-31" transform="translate(0 0.765625)"/>
       <use xlink:href="#DejaVuSans-30" transform="translate(63.623047 0.765625)"/>
       <use xlink:href="#DejaVuSans-33" transform="translate(128.203125 39.046875) scale(0.7)"/>
      </g>
     </g>
    </g>
    <g id="ytick_10">
     <g id="line2d_44">
      <path d="M 464.943558 124.428453 
L 777.295625 124.428453 
" clip-path="url(#pfa296f85aa)" style="fill: none; stroke: #b0b0b0; stroke-opacity: 0.25; stroke-width: 0.8; stroke-linecap: square"/>
     </g>
     <g id="line2d_45">
      <g>
       <use xlink:href="#m8b846c2393" x="464.943558" y="124.428453" style="stroke: #000000; stroke-width: 0.8"/>
      </g>
     </g>
     <g id="text_27">
      <!-- $\mathdefault{10^{4}}$ -->
      <g transform="translate(440.343558 128.227672) scale(0.1 -0.1)">
       <use xlink:href="#DejaVuSans-31" transform="translate(0 0.684375)"/>
       <use xlink:href="#DejaVuSans-30" transform="translate(63.623047 0.684375)"/>
       <use xlink:href="#DejaVuSans-34" transform="translate(128.203125 38.965625) scale(0.7)"/>
      </g>
     </g>
    </g>
    <g id="ytick_11">
     <g id="line2d_46">
      <path d="M 464.943558 76.355912 
L 777.295625 76.355912 
" clip-path="url(#pfa296f85aa)" style="fill: none; stroke: #b0b0b0; stroke-opacity: 0.25; stroke-width: 0.8; stroke-linecap: square"/>
     </g>
     <g id="line2d_47">
      <g>
       <use xlink:href="#m8b846c2393" x="464.943558" y="76.355912" style="stroke: #000000; stroke-width: 0.8"/>
      </g>
     </g>
     <g id="text_28">
      <!-- $\mathdefault{10^{5}}$ -->
      <g transform="translate(440.343558 80.155131) scale(0.1 -0.1)">
       <use xlink:href="#DejaVuSans-31" transform="translate(0 0.684375)"/>
       <use xlink:href="#DejaVuSans-30" transform="translate(63.623047 0.684375)"/>
       <use xlink:href="#DejaVuSans-35" transform="translate(128.203125 38.965625) scale(0.7)"/>
      </g>
     </g>
    </g>
    <g id="ytick_12">
     <g id="line2d_48">
      <path d="M 464.943558 287.776063 
L 777.295625 287.776063 
" clip-path="url(#pfa296f85aa)" style="fill: none; stroke: #b0b0b0; stroke-opacity: 0.25; stroke-width: 0.8; stroke-linecap: square"/>
     </g>
     <g id="line2d_49">
      <defs>
       <path id="mdefcfd8fec" d="M 0 0 
L -2 0 
" style="stroke: #000000; stroke-width: 0.6"/>
      </defs>
      <g>
       <use xlink:href="#mdefcfd8fec" x="464.943558" y="287.776063" style="stroke: #000000; stroke-width: 0.6"/>
      </g>
     </g>
    </g>
    <g id="ytick_13">
     <g id="line2d_50">
      <path d="M 464.943558 283.117353 
L 777.295625 283.117353 
" clip-path="url(#pfa296f85aa)" style="fill: none; stroke: #b0b0b0; stroke-opacity: 0.25; stroke-width: 0.8; stroke-linecap: square"/>
     </g>
     <g id="line2d_51">
      <g>
       <use xlink:href="#mdefcfd8fec" x="464.943558" y="283.117353" style="stroke: #000000; stroke-width: 0.6"/>
      </g>
     </g>
    </g>
    <g id="ytick_14">
     <g id="line2d_52">
      <path d="M 464.943558 279.310909 
L 777.295625 279.310909 
" clip-path="url(#pfa296f85aa)" style="fill: none; stroke: #b0b0b0; stroke-opacity: 0.25; stroke-width: 0.8; stroke-linecap: square"/>
     </g>
     <g id="line2d_53">
      <g>
       <use xlink:href="#mdefcfd8fec" x="464.943558" y="279.310909" style="stroke: #000000; stroke-width: 0.6"/>
      </g>
     </g>
    </g>
    <g id="ytick_15">
     <g id="line2d_54">
      <path d="M 464.943558 276.092607 
L 777.295625 276.092607 
" clip-path="url(#pfa296f85aa)" style="fill: none; stroke: #b0b0b0; stroke-opacity: 0.25; stroke-width: 0.8; stroke-linecap: square"/>
     </g>
     <g id="line2d_55">
      <g>
       <use xlink:href="#mdefcfd8fec" x="464.943558" y="276.092607" style="stroke: #000000; stroke-width: 0.6"/>
      </g>
     </g>
    </g>
    <g id="ytick_16">
     <g id="line2d_56">
      <path d="M 464.943558 273.304787 
L 777.295625 273.304787 
" clip-path="url(#pfa296f85aa)" style="fill: none; stroke: #b0b0b0; stroke-opacity: 0.25; stroke-width: 0.8; stroke-linecap: square"/>
     </g>
     <g id="line2d_57">
      <g>
       <use xlink:href="#mdefcfd8fec" x="464.943558" y="273.304787" style="stroke: #000000; stroke-width: 0.6"/>
      </g>
     </g>
    </g>
    <g id="ytick_17">
     <g id="line2d_58">
      <path d="M 464.943558 270.845755 
L 777.295625 270.845755 
" clip-path="url(#pfa296f85aa)" style="fill: none; stroke: #b0b0b0; stroke-opacity: 0.25; stroke-width: 0.8; stroke-linecap: square"/>
     </g>
     <g id="line2d_59">
      <g>
       <use xlink:href="#mdefcfd8fec" x="464.943558" y="270.845755" style="stroke: #000000; stroke-width: 0.6"/>
      </g>
     </g>
    </g>
    <g id="ytick_18">
     <g id="line2d_60">
      <path d="M 464.943558 254.174799 
L 777.295625 254.174799 
" clip-path="url(#pfa296f85aa)" style="fill: none; stroke: #b0b0b0; stroke-opacity: 0.25; stroke-width: 0.8; stroke-linecap: square"/>
     </g>
     <g id="line2d_61">
      <g>
       <use xlink:href="#mdefcfd8fec" x="464.943558" y="254.174799" style="stroke: #000000; stroke-width: 0.6"/>
      </g>
     </g>
    </g>
    <g id="ytick_19">
     <g id="line2d_62">
      <path d="M 464.943558 245.709645 
L 777.295625 245.709645 
" clip-path="url(#pfa296f85aa)" style="fill: none; stroke: #b0b0b0; stroke-opacity: 0.25; stroke-width: 0.8; stroke-linecap: square"/>
     </g>
     <g id="line2d_63">
      <g>
       <use xlink:href="#mdefcfd8fec" x="464.943558" y="245.709645" style="stroke: #000000; stroke-width: 0.6"/>
      </g>
     </g>
    </g>
    <g id="ytick_20">
     <g id="line2d_64">
      <path d="M 464.943558 239.703522 
L 777.295625 239.703522 
" clip-path="url(#pfa296f85aa)" style="fill: none; stroke: #b0b0b0; stroke-opacity: 0.25; stroke-width: 0.8; stroke-linecap: square"/>
     </g>
     <g id="line2d_65">
      <g>
       <use xlink:href="#mdefcfd8fec" x="464.943558" y="239.703522" style="stroke: #000000; stroke-width: 0.6"/>
      </g>
     </g>
    </g>
    <g id="ytick_21">
     <g id="line2d_66">
      <path d="M 464.943558 235.044812 
L 777.295625 235.044812 
" clip-path="url(#pfa296f85aa)" style="fill: none; stroke: #b0b0b0; stroke-opacity: 0.25; stroke-width: 0.8; stroke-linecap: square"/>
     </g>
     <g id="line2d_67">
      <g>
       <use xlink:href="#mdefcfd8fec" x="464.943558" y="235.044812" style="stroke: #000000; stroke-width: 0.6"/>
      </g>
     </g>
    </g>
    <g id="ytick_22">
     <g id="line2d_68">
      <path d="M 464.943558 231.238368 
L 777.295625 231.238368 
" clip-path="url(#pfa296f85aa)" style="fill: none; stroke: #b0b0b0; stroke-opacity: 0.25; stroke-width: 0.8; stroke-linecap: square"/>
     </g>
     <g id="line2d_69">
      <g>
       <use xlink:href="#mdefcfd8fec" x="464.943558" y="231.238368" style="stroke: #000000; stroke-width: 0.6"/>
      </g>
     </g>
    </g>
    <g id="ytick_23">
     <g id="line2d_70">
      <path d="M 464.943558 228.020066 
L 777.295625 228.020066 
" clip-path="url(#pfa296f85aa)" style="fill: none; stroke: #b0b0b0; stroke-opacity: 0.25; stroke-width: 0.8; stroke-linecap: square"/>
     </g>
     <g id="line2d_71">
      <g>
       <use xlink:href="#mdefcfd8fec" x="464.943558" y="228.020066" style="stroke: #000000; stroke-width: 0.6"/>
      </g>
     </g>
    </g>
    <g id="ytick_24">
     <g id="line2d_72">
      <path d="M 464.943558 225.232245 
L 777.295625 225.232245 
" clip-path="url(#pfa296f85aa)" style="fill: none; stroke: #b0b0b0; stroke-opacity: 0.25; stroke-width: 0.8; stroke-linecap: square"/>
     </g>
     <g id="line2d_73">
      <g>
       <use xlink:href="#mdefcfd8fec" x="464.943558" y="225.232245" style="stroke: #000000; stroke-width: 0.6"/>
      </g>
     </g>
    </g>
    <g id="ytick_25">
     <g id="line2d_74">
      <path d="M 464.943558 222.773214 
L 777.295625 222.773214 
" clip-path="url(#pfa296f85aa)" style="fill: none; stroke: #b0b0b0; stroke-opacity: 0.25; stroke-width: 0.8; stroke-linecap: square"/>
     </g>
     <g id="line2d_75">
      <g>
       <use xlink:href="#mdefcfd8fec" x="464.943558" y="222.773214" style="stroke: #000000; stroke-width: 0.6"/>
      </g>
     </g>
    </g>
    <g id="ytick_26">
     <g id="line2d_76">
      <path d="M 464.943558 206.102258 
L 777.295625 206.102258 
" clip-path="url(#pfa296f85aa)" style="fill: none; stroke: #b0b0b0; stroke-opacity: 0.25; stroke-width: 0.8; stroke-linecap: square"/>
     </g>
     <g id="line2d_77">
      <g>
       <use xlink:href="#mdefcfd8fec" x="464.943558" y="206.102258" style="stroke: #000000; stroke-width: 0.6"/>
      </g>
     </g>
    </g>
    <g id="ytick_27">
     <g id="line2d_78">
      <path d="M 464.943558 197.637104 
L 777.295625 197.637104 
" clip-path="url(#pfa296f85aa)" style="fill: none; stroke: #b0b0b0; stroke-opacity: 0.25; stroke-width: 0.8; stroke-linecap: square"/>
     </g>
     <g id="line2d_79">
      <g>
       <use xlink:href="#mdefcfd8fec" x="464.943558" y="197.637104" style="stroke: #000000; stroke-width: 0.6"/>
      </g>
     </g>
    </g>
    <g id="ytick_28">
     <g id="line2d_80">
      <path d="M 464.943558 191.630981 
L 777.295625 191.630981 
" clip-path="url(#pfa296f85aa)" style="fill: none; stroke: #b0b0b0; stroke-opacity: 0.25; stroke-width: 0.8; stroke-linecap: square"/>
     </g>
     <g id="line2d_81">
      <g>
       <use xlink:href="#mdefcfd8fec" x="464.943558" y="191.630981" style="stroke: #000000; stroke-width: 0.6"/>
      </g>
     </g>
    </g>
    <g id="ytick_29">
     <g id="line2d_82">
      <path d="M 464.943558 186.972271 
L 777.295625 186.972271 
" clip-path="url(#pfa296f85aa)" style="fill: none; stroke: #b0b0b0; stroke-opacity: 0.25; stroke-width: 0.8; stroke-linecap: square"/>
     </g>
     <g id="line2d_83">
      <g>
       <use xlink:href="#mdefcfd8fec" x="464.943558" y="186.972271" style="stroke: #000000; stroke-width: 0.6"/>
      </g>
     </g>
    </g>
    <g id="ytick_30">
     <g id="line2d_84">
      <path d="M 464.943558 183.165827 
L 777.295625 183.165827 
" clip-path="url(#pfa296f85aa)" style="fill: none; stroke: #b0b0b0; stroke-opacity: 0.25; stroke-width: 0.8; stroke-linecap: square"/>
     </g>
     <g id="line2d_85">
      <g>
       <use xlink:href="#mdefcfd8fec" x="464.943558" y="183.165827" style="stroke: #000000; stroke-width: 0.6"/>
      </g>
     </g>
    </g>
    <g id="ytick_31">
     <g id="line2d_86">
      <path d="M 464.943558 179.947525 
L 777.295625 179.947525 
" clip-path="url(#pfa296f85aa)" style="fill: none; stroke: #b0b0b0; stroke-opacity: 0.25; stroke-width: 0.8; stroke-linecap: square"/>
     </g>
     <g id="line2d_87">
      <g>
       <use xlink:href="#mdefcfd8fec" x="464.943558" y="179.947525" style="stroke: #000000; stroke-width: 0.6"/>
      </g>
     </g>
    </g>
    <g id="ytick_32">
     <g id="line2d_88">
      <path d="M 464.943558 177.159704 
L 777.295625 177.159704 
" clip-path="url(#pfa296f85aa)" style="fill: none; stroke: #b0b0b0; stroke-opacity: 0.25; stroke-width: 0.8; stroke-linecap: square"/>
     </g>
     <g id="line2d_89">
      <g>
       <use xlink:href="#mdefcfd8fec" x="464.943558" y="177.159704" style="stroke: #000000; stroke-width: 0.6"/>
      </g>
     </g>
    </g>
    <g id="ytick_33">
     <g id="line2d_90">
      <path d="M 464.943558 174.700673 
L 777.295625 174.700673 
" clip-path="url(#pfa296f85aa)" style="fill: none; stroke: #b0b0b0; stroke-opacity: 0.25; stroke-width: 0.8; stroke-linecap: square"/>
     </g>
     <g id="line2d_91">
      <g>
       <use xlink:href="#mdefcfd8fec" x="464.943558" y="174.700673" style="stroke: #000000; stroke-width: 0.6"/>
      </g>
     </g>
    </g>
    <g id="ytick_34">
     <g id="line2d_92">
      <path d="M 464.943558 158.029717 
L 777.295625 158.029717 
" clip-path="url(#pfa296f85aa)" style="fill: none; stroke: #b0b0b0; stroke-opacity: 0.25; stroke-width: 0.8; stroke-linecap: square"/>
     </g>
     <g id="line2d_93">
      <g>
       <use xlink:href="#mdefcfd8fec" x="464.943558" y="158.029717" style="stroke: #000000; stroke-width: 0.6"/>
      </g>
     </g>
    </g>
    <g id="ytick_35">
     <g id="line2d_94">
      <path d="M 464.943558 149.564563 
L 777.295625 149.564563 
" clip-path="url(#pfa296f85aa)" style="fill: none; stroke: #b0b0b0; stroke-opacity: 0.25; stroke-width: 0.8; stroke-linecap: square"/>
     </g>
     <g id="line2d_95">
      <g>
       <use xlink:href="#mdefcfd8fec" x="464.943558" y="149.564563" style="stroke: #000000; stroke-width: 0.6"/>
      </g>
     </g>
    </g>
    <g id="ytick_36">
     <g id="line2d_96">
      <path d="M 464.943558 143.55844 
L 777.295625 143.55844 
" clip-path="url(#pfa296f85aa)" style="fill: none; stroke: #b0b0b0; stroke-opacity: 0.25; stroke-width: 0.8; stroke-linecap: square"/>
     </g>
     <g id="line2d_97">
      <g>
       <use xlink:href="#mdefcfd8fec" x="464.943558" y="143.55844" style="stroke: #000000; stroke-width: 0.6"/>
      </g>
     </g>
    </g>
    <g id="ytick_37">
     <g id="line2d_98">
      <path d="M 464.943558 138.89973 
L 777.295625 138.89973 
" clip-path="url(#pfa296f85aa)" style="fill: none; stroke: #b0b0b0; stroke-opacity: 0.25; stroke-width: 0.8; stroke-linecap: square"/>
     </g>
     <g id="line2d_99">
      <g>
       <use xlink:href="#mdefcfd8fec" x="464.943558" y="138.89973" style="stroke: #000000; stroke-width: 0.6"/>
      </g>
     </g>
    </g>
    <g id="ytick_38">
     <g id="line2d_100">
      <path d="M 464.943558 135.093286 
L 777.295625 135.093286 
" clip-path="url(#pfa296f85aa)" style="fill: none; stroke: #b0b0b0; stroke-opacity: 0.25; stroke-width: 0.8; stroke-linecap: square"/>
     </g>
     <g id="line2d_101">
      <g>
       <use xlink:href="#mdefcfd8fec" x="464.943558" y="135.093286" style="stroke: #000000; stroke-width: 0.6"/>
      </g>
     </g>
    </g>
    <g id="ytick_39">
     <g id="line2d_102">
      <path d="M 464.943558 131.874984 
L 777.295625 131.874984 
" clip-path="url(#pfa296f85aa)" style="fill: none; stroke: #b0b0b0; stroke-opacity: 0.25; stroke-width: 0.8; stroke-linecap: square"/>
     </g>
     <g id="line2d_103">
      <g>
       <use xlink:href="#mdefcfd8fec" x="464.943558" y="131.874984" style="stroke: #000000; stroke-width: 0.6"/>
      </g>
     </g>
    </g>
    <g id="ytick_40">
     <g id="line2d_104">
      <path d="M 464.943558 129.087163 
L 777.295625 129.087163 
" clip-path="url(#pfa296f85aa)" style="fill: none; stroke: #b0b0b0; stroke-opacity: 0.25; stroke-width: 0.8; stroke-linecap: square"/>
     </g>
     <g id="line2d_105">
      <g>
       <use xlink:href="#mdefcfd8fec" x="464.943558" y="129.087163" style="stroke: #000000; stroke-width: 0.6"/>
      </g>
     </g>
    </g>
    <g id="ytick_41">
     <g id="line2d_106">
      <path d="M 464.943558 126.628132 
L 777.295625 126.628132 
" clip-path="url(#pfa296f85aa)" style="fill: none; stroke: #b0b0b0; stroke-opacity: 0.25; stroke-width: 0.8; stroke-linecap: square"/>
     </g>
     <g id="line2d_107">
      <g>
       <use xlink:href="#mdefcfd8fec" x="464.943558" y="126.628132" style="stroke: #000000; stroke-width: 0.6"/>
      </g>
     </g>
    </g>
    <g id="ytick_42">
     <g id="line2d_108">
      <path d="M 464.943558 109.957176 
L 777.295625 109.957176 
" clip-path="url(#pfa296f85aa)" style="fill: none; stroke: #b0b0b0; stroke-opacity: 0.25; stroke-width: 0.8; stroke-linecap: square"/>
     </g>
     <g id="line2d_109">
      <g>
       <use xlink:href="#mdefcfd8fec" x="464.943558" y="109.957176" style="stroke: #000000; stroke-width: 0.6"/>
      </g>
     </g>
    </g>
    <g id="ytick_43">
     <g id="line2d_110">
      <path d="M 464.943558 101.492022 
L 777.295625 101.492022 
" clip-path="url(#pfa296f85aa)" style="fill: none; stroke: #b0b0b0; stroke-opacity: 0.25; stroke-width: 0.8; stroke-linecap: square"/>
     </g>
     <g id="line2d_111">
      <g>
       <use xlink:href="#mdefcfd8fec" x="464.943558" y="101.492022" style="stroke: #000000; stroke-width: 0.6"/>
      </g>
     </g>
    </g>
    <g id="ytick_44">
     <g id="line2d_112">
      <path d="M 464.943558 95.485899 
L 777.295625 95.485899 
" clip-path="url(#pfa296f85aa)" style="fill: none; stroke: #b0b0b0; stroke-opacity: 0.25; stroke-width: 0.8; stroke-linecap: square"/>
     </g>
     <g id="line2d_113">
      <g>
       <use xlink:href="#mdefcfd8fec" x="464.943558" y="95.485899" style="stroke: #000000; stroke-width: 0.6"/>
      </g>
     </g>
    </g>
    <g id="ytick_45">
     <g id="line2d_114">
      <path d="M 464.943558 90.827189 
L 777.295625 90.827189 
" clip-path="url(#pfa296f85aa)" style="fill: none; stroke: #b0b0b0; stroke-opacity: 0.25; stroke-width: 0.8; stroke-linecap: square"/>
     </g>
     <g id="line2d_115">
      <g>
       <use xlink:href="#mdefcfd8fec" x="464.943558" y="90.827189" style="stroke: #000000; stroke-width: 0.6"/>
      </g>
     </g>
    </g>
    <g id="ytick_46">
     <g id="line2d_116">
      <path d="M 464.943558 87.020745 
L 777.295625 87.020745 
" clip-path="url(#pfa296f85aa)" style="fill: none; stroke: #b0b0b0; stroke-opacity: 0.25; stroke-width: 0.8; stroke-linecap: square"/>
     </g>
     <g id="line2d_117">
      <g>
       <use xlink:href="#mdefcfd8fec" x="464.943558" y="87.020745" style="stroke: #000000; stroke-width: 0.6"/>
      </g>
     </g>
    </g>
    <g id="ytick_47">
     <g id="line2d_118">
      <path d="M 464.943558 83.802443 
L 777.295625 83.802443 
" clip-path="url(#pfa296f85aa)" style="fill: none; stroke: #b0b0b0; stroke-opacity: 0.25; stroke-width: 0.8; stroke-linecap: square"/>
     </g>
     <g id="line2d_119">
      <g>
       <use xlink:href="#mdefcfd8fec" x="464.943558" y="83.802443" style="stroke: #000000; stroke-width: 0.6"/>
      </g>
     </g>
    </g>
    <g id="ytick_48">
     <g id="line2d_120">
      <path d="M 464.943558 81.014622 
L 777.295625 81.014622 
" clip-path="url(#pfa296f85aa)" style="fill: none; stroke: #b0b0b0; stroke-opacity: 0.25; stroke-width: 0.8; stroke-linecap: square"/>
     </g>
     <g id="line2d_121">
      <g>
       <use xlink:href="#mdefcfd8fec" x="464.943558" y="81.014622" style="stroke: #000000; stroke-width: 0.6"/>
      </g>
     </g>
    </g>
    <g id="ytick_49">
     <g id="line2d_122">
      <path d="M 464.943558 78.555591 
L 777.295625 78.555591 
" clip-path="url(#pfa296f85aa)" style="fill: none; stroke: #b0b0b0; stroke-opacity: 0.25; stroke-width: 0.8; stroke-linecap: square"/>
     </g>
     <g id="line2d_123">
      <g>
       <use xlink:href="#mdefcfd8fec" x="464.943558" y="78.555591" style="stroke: #000000; stroke-width: 0.6"/>
      </g>
     </g>
    </g>
    <g id="ytick_50">
     <g id="line2d_124">
      <path d="M 464.943558 61.884635 
L 777.295625 61.884635 
" clip-path="url(#pfa296f85aa)" style="fill: none; stroke: #b0b0b0; stroke-opacity: 0.25; stroke-width: 0.8; stroke-linecap: square"/>
     </g>
     <g id="line2d_125">
      <g>
       <use xlink:href="#mdefcfd8fec" x="464.943558" y="61.884635" style="stroke: #000000; stroke-width: 0.6"/>
      </g>
     </g>
    </g>
    <g id="text_29">
     <!-- Measles reported cases (log scale) -->
     <g transform="translate(434.263871 260.7725) rotate(-90) scale(0.1 -0.1)">
      <use xlink:href="#DejaVuSans-4d"/>
      <use xlink:href="#DejaVuSans-65" transform="translate(86.279297 0)"/>
      <use xlink:href="#DejaVuSans-61" transform="translate(147.802734 0)"/>
      <use xlink:href="#DejaVuSans-73" transform="translate(209.082031 0)"/>
      <use xlink:href="#DejaVuSans-6c" transform="translate(261.181641 0)"/>
      <use xlink:href="#DejaVuSans-65" transform="translate(288.964844 0)"/>
      <use xlink:href="#DejaVuSans-73" transform="translate(350.488281 0)"/>
      <use xlink:href="#DejaVuSans-20" transform="translate(402.587891 0)"/>
      <use xlink:href="#DejaVuSans-72" transform="translate(434.375 0)"/>
      <use xlink:href="#DejaVuSans-65" transform="translate(473.238281 0)"/>
      <use xlink:href="#DejaVuSans-70" transform="translate(534.761719 0)"/>
      <use xlink:href="#DejaVuSans-6f" transform="translate(598.238281 0)"/>
      <use xlink:href="#DejaVuSans-72" transform="translate(659.419922 0)"/>
      <use xlink:href="#DejaVuSans-74" transform="translate(700.533203 0)"/>
      <use xlink:href="#DejaVuSans-65" transform="translate(739.742188 0)"/>
      <use xlink:href="#DejaVuSans-64" transform="translate(801.265625 0)"/>
      <use xlink:href="#DejaVuSans-20" transform="translate(864.742188 0)"/>
      <use xlink:href="#DejaVuSans-63" transform="translate(896.529297 0)"/>
      <use xlink:href="#DejaVuSans-61" transform="translate(951.509766 0)"/>
      <use xlink:href="#DejaVuSans-73" transform="translate(1012.789062 0)"/>
      <use xlink:href="#DejaVuSans-65" transform="translate(1064.888672 0)"/>
      <use xlink:href="#DejaVuSans-73" transform="translate(1126.412109 0)"/>
      <use xlink:href="#DejaVuSans-20" transform="translate(1178.511719 0)"/>
      <use xlink:href="#DejaVuSans-28" transform="translate(1210.298828 0)"/>
      <use xlink:href="#DejaVuSans-6c" transform="translate(1249.3125 0)"/>
      <use xlink:href="#DejaVuSans-6f" transform="translate(1277.095703 0)"/>
      <use xlink:href="#DejaVuSans-67" transform="translate(1338.277344 0)"/>
      <use xlink:href="#DejaVuSans-20" transform="translate(1401.753906 0)"/>
      <use xlink:href="#DejaVuSans-73" transform="translate(1433.541016 0)"/>
      <use xlink:href="#DejaVuSans-63" transform="translate(1485.640625 0)"/>
      <use xlink:href="#DejaVuSans-61" transform="translate(1540.621094 0)"/>
      <use xlink:href="#DejaVuSans-6c" transform="translate(1601.900391 0)"/>
      <use xlink:href="#DejaVuSans-65" transform="translate(1629.683594 0)"/>
      <use xlink:href="#DejaVuSans-29" transform="translate(1691.207031 0)"/>
     </g>
    </g>
   </g>
   <g id="line2d_126">
    <path d="M 479.14138 78.252752 
L 484.820508 69.209091 
L 490.499636 70.653937 
L 496.178765 74.664263 
L 501.857893 74.869151 
L 507.537022 78.833951 
L 513.21615 80.325671 
L 518.895279 96.296887 
L 524.574407 81.109832 
L 530.253536 97.362744 
L 535.932664 95.39268 
L 541.611793 85.505358 
L 547.290921 122.251543 
L 552.97005 105.482159 
L 558.649178 95.24924 
L 564.328307 109.960308 
L 570.007435 99.984727 
L 575.686564 113.185049 
L 581.365692 95.520899 
L 587.044821 98.48897 
L 592.723949 98.380768 
L 598.403078 95.342338 
L 604.082206 98.711945 
L 609.761335 96.966797 
L 615.440463 106.737382 
L 621.119592 114.632857 
L 626.79872 106.977642 
L 632.477849 118.200126 
L 638.156977 120.125165 
L 643.836106 158.676398 
L 649.515234 231.238368 
L 655.194363 189.879734 
L 660.873491 190.612358 
L 666.55262 279.310909 
L 672.231748 224.716722 
L 677.910877 220.365795 
L 683.590005 181.785819 
L 689.269133 216.767091 
L 694.948262 162.519482 
L 700.62739 196.355037 
L 706.306519 216.082517 
L 711.985647 251.2569 
L 717.664776 244.362233 
L 723.343904 255.245682 
L 729.023033 243.096534 
L 734.702161 167.445232 
L 740.38129 223.242394 
L 746.060418 234.225976 
L 751.739547 191.893597 
L 757.418675 155.275851 
L 763.097804 158.622631 
" clip-path="url(#pfa296f85aa)" style="fill: none; stroke: #cc79a7; stroke-width: 2; stroke-linecap: square"/>
   </g>
   <g id="patch_8">
    <path d="M 464.943558 289.816 
L 464.943558 58.704 
" style="fill: none; stroke: #000000; stroke-width: 0.8; stroke-linejoin: miter; stroke-linecap: square"/>
   </g>
   <g id="patch_9">
    <path d="M 777.295625 289.816 
L 777.295625 58.704 
" style="fill: none; stroke: #000000; stroke-width: 0.8; stroke-linejoin: miter; stroke-linecap: square"/>
   </g>
   <g id="patch_10">
    <path d="M 464.943558 289.816 
L 777.295625 289.816 
" style="fill: none; stroke: #000000; stroke-width: 0.8; stroke-linejoin: miter; stroke-linecap: square"/>
   </g>
   <g id="patch_11">
    <path d="M 464.943558 58.704 
L 777.295625 58.704 
" style="fill: none; stroke: #000000; stroke-width: 0.8; stroke-linejoin: miter; stroke-linecap: square"/>
   </g>
   <g id="text_30">
    <!-- B. National measles burden collapsed as coverage rose -->
    <g transform="translate(464.943558 52.704) scale(0.09 -0.09)">
     <defs>
      <path id="DejaVuSans-42" d="M 1259 2228 
L 1259 519 
L 2272 519 
Q 2781 519 3026 730 
Q 3272 941 3272 1375 
Q 3272 1813 3026 2020 
Q 2781 2228 2272 2228 
L 1259 2228 
z
M 1259 4147 
L 1259 2741 
L 2194 2741 
Q 2656 2741 2882 2914 
Q 3109 3088 3109 3444 
Q 3109 3797 2882 3972 
Q 2656 4147 2194 4147 
L 1259 4147 
z
M 628 4666 
L 2241 4666 
Q 2963 4666 3353 4366 
Q 3744 4066 3744 3513 
Q 3744 3084 3544 2831 
Q 3344 2578 2956 2516 
Q 3422 2416 3680 2098 
Q 3938 1781 3938 1306 
Q 3938 681 3513 340 
Q 3088 0 2303 0 
L 628 0 
L 628 4666 
z
" transform="scale(0.015625)"/>
      <path id="DejaVuSans-4e" d="M 628 4666 
L 1478 4666 
L 3547 763 
L 3547 4666 
L 4159 4666 
L 4159 0 
L 3309 0 
L 1241 3903 
L 1241 0 
L 628 0 
L 628 4666 
z
" transform="scale(0.015625)"/>
      <path id="DejaVuSans-62" d="M 3116 1747 
Q 3116 2381 2855 2742 
Q 2594 3103 2138 3103 
Q 1681 3103 1420 2742 
Q 1159 2381 1159 1747 
Q 1159 1113 1420 752 
Q 1681 391 2138 391 
Q 2594 391 2855 752 
Q 3116 1113 3116 1747 
z
M 1159 2969 
Q 1341 3281 1617 3432 
Q 1894 3584 2278 3584 
Q 2916 3584 3314 3078 
Q 3713 2572 3713 1747 
Q 3713 922 3314 415 
Q 2916 -91 2278 -91 
Q 1894 -91 1617 61 
Q 1341 213 1159 525 
L 1159 0 
L 581 0 
L 581 4863 
L 1159 4863 
L 1159 2969 
z
" transform="scale(0.015625)"/>
     </defs>
     <use xlink:href="#DejaVuSans-42"/>
     <use xlink:href="#DejaVuSans-2e" transform="translate(68.603516 0)"/>
     <use xlink:href="#DejaVuSans-20" transform="translate(100.390625 0)"/>
     <use xlink:href="#DejaVuSans-4e" transform="translate(132.177734 0)"/>
     <use xlink:href="#DejaVuSans-61" transform="translate(206.982422 0)"/>
     <use xlink:href="#DejaVuSans-74" transform="translate(268.261719 0)"/>
     <use xlink:href="#DejaVuSans-69" transform="translate(307.470703 0)"/>
     <use xlink:href="#DejaVuSans-6f" transform="translate(335.253906 0)"/>
     <use xlink:href="#DejaVuSans-6e" transform="translate(396.435547 0)"/>
     <use xlink:href="#DejaVuSans-61" transform="translate(459.814453 0)"/>
     <use xlink:href="#DejaVuSans-6c" transform="translate(521.09375 0)"/>
     <use xlink:href="#DejaVuSans-20" transform="translate(548.876953 0)"/>
     <use xlink:href="#DejaVuSans-6d" transform="translate(580.664062 0)"/>
     <use xlink:href="#DejaVuSans-65" transform="translate(678.076172 0)"/>
     <use xlink:href="#DejaVuSans-61" transform="translate(739.599609 0)"/>
     <use xlink:href="#DejaVuSans-73" transform="translate(800.878906 0)"/>
     <use xlink:href="#DejaVuSans-6c" transform="translate(852.978516 0)"/>
     <use xlink:href="#DejaVuSans-65" transform="translate(880.761719 0)"/>
     <use xlink:href="#DejaVuSans-73" transform="translate(942.285156 0)"/>
     <use xlink:href="#DejaVuSans-20" transform="translate(994.384766 0)"/>
     <use xlink:href="#DejaVuSans-62" transform="translate(1026.171875 0)"/>
     <use xlink:href="#DejaVuSans-75" transform="translate(1089.648438 0)"/>
     <use xlink:href="#DejaVuSans-72" transform="translate(1153.027344 0)"/>
     <use xlink:href="#DejaVuSans-64" transform="translate(1192.390625 0)"/>
     <use xlink:href="#DejaVuSans-65" transform="translate(1255.867188 0)"/>
     <use xlink:href="#DejaVuSans-6e" transform="translate(1317.390625 0)"/>
     <use xlink:href="#DejaVuSans-20" transform="translate(1380.769531 0)"/>
     <use xlink:href="#DejaVuSans-63" transform="translate(1412.556641 0)"/>
     <use xlink:href="#DejaVuSans-6f" transform="translate(1467.537109 0)"/>
     <use xlink:href="#DejaVuSans-6c" transform="translate(1528.71875 0)"/>
     <use xlink:href="#DejaVuSans-6c" transform="translate(1556.501953 0)"/>
     <use xlink:href="#DejaVuSans-61" transform="translate(1584.285156 0)"/>
     <use xlink:href="#DejaVuSans-70" transform="translate(1645.564453 0)"/>
     <use xlink:href="#DejaVuSans-73" transform="translate(1709.041016 0)"/>
     <use xlink:href="#DejaVuSans-65" transform="translate(1761.140625 0)"/>
     <use xlink:href="#DejaVuSans-64" transform="translate(1822.664062 0)"/>
     <use xlink:href="#DejaVuSans-20" transform="translate(1886.140625 0)"/>
     <use xlink:href="#DejaVuSans-61" transform="translate(1917.927734 0)"/>
     <use xlink:href="#DejaVuSans-73" transform="translate(1979.207031 0)"/>
     <use xlink:href="#DejaVuSans-20" transform="translate(2031.306641 0)"/>
     <use xlink:href="#DejaVuSans-63" transform="translate(2063.09375 0)"/>
     <use xlink:href="#DejaVuSans-6f" transform="translate(2118.074219 0)"/>
     <use xlink:href="#DejaVuSans-76" transform="translate(2179.255859 0)"/>
     <use xlink:href="#DejaVuSans-65" transform="translate(2238.435547 0)"/>
     <use xlink:href="#DejaVuSans-72" transform="translate(2299.958984 0)"/>
     <use xlink:href="#DejaVuSans-61" transform="translate(2341.072266 0)"/>
     <use xlink:href="#DejaVuSans-67" transform="translate(2402.351562 0)"/>
     <use xlink:href="#DejaVuSans-65" transform="translate(2465.828125 0)"/>
     <use xlink:href="#DejaVuSans-20" transform="translate(2527.351562 0)"/>
     <use xlink:href="#DejaVuSans-72" transform="translate(2559.138672 0)"/>
     <use xlink:href="#DejaVuSans-6f" transform="translate(2598.001953 0)"/>
     <use xlink:href="#DejaVuSans-73" transform="translate(2659.183594 0)"/>
     <use xlink:href="#DejaVuSans-65" transform="translate(2711.283203 0)"/>
    </g>
   </g>
  </g>
  <g id="text_31">
   <!-- Ghana national context (WHO GHO) — country-level framing; not used in the district model -->
   <g transform="translate(163.155 14.798437) scale(0.1 -0.1)">
    <defs>
     <path id="DejaVuSans-78" d="M 3513 3500 
L 2247 1797 
L 3578 0 
L 2900 0 
L 1881 1375 
L 863 0 
L 184 0 
L 1544 1831 
L 300 3500 
L 978 3500 
L 1906 2253 
L 2834 3500 
L 3513 3500 
z
" transform="scale(0.015625)"/>
     <path id="DejaVuSans-57" d="M 213 4666 
L 850 4666 
L 1831 722 
L 2809 4666 
L 3519 4666 
L 4500 722 
L 5478 4666 
L 6119 4666 
L 4947 0 
L 4153 0 
L 3169 4050 
L 2175 0 
L 1381 0 
L 213 4666 
z
" transform="scale(0.015625)"/>
     <path id="DejaVuSans-48" d="M 628 4666 
L 1259 4666 
L 1259 2753 
L 3553 2753 
L 3553 4666 
L 4184 4666 
L 4184 0 
L 3553 0 
L 3553 2222 
L 1259 2222 
L 1259 0 
L 628 0 
L 628 4666 
z
" transform="scale(0.015625)"/>
     <path id="DejaVuSans-4f" d="M 2522 4238 
Q 1834 4238 1429 3725 
Q 1025 3213 1025 2328 
Q 1025 1447 1429 934 
Q 1834 422 2522 422 
Q 3209 422 3611 934 
Q 4013 1447 4013 2328 
Q 4013 3213 3611 3725 
Q 3209 4238 2522 4238 
z
M 2522 4750 
Q 3503 4750 4090 4092 
Q 4678 3434 4678 2328 
Q 4678 1225 4090 567 
Q 3503 -91 2522 -91 
Q 1538 -91 948 565 
Q 359 1222 359 2328 
Q 359 3434 948 4092 
Q 1538 4750 2522 4750 
z
" transform="scale(0.015625)"/>
     <path id="DejaVuSans-2014" d="M 313 1978 
L 6088 1978 
L 6088 1528 
L 313 1528 
L 313 1978 
z
" transform="scale(0.015625)"/>
     <path id="DejaVuSans-66" d="M 2375 4863 
L 2375 4384 
L 1825 4384 
Q 1516 4384 1395 4259 
Q 1275 4134 1275 3809 
L 1275 3500 
L 2222 3500 
L 2222 3053 
L 1275 3053 
L 1275 0 
L 697 0 
L 697 3053 
L 147 3053 
L 147 3500 
L 697 3500 
L 697 3744 
Q 697 4328 969 4595 
Q 1241 4863 1831 4863 
L 2375 4863 
z
" transform="scale(0.015625)"/>
     <path id="DejaVuSans-3b" d="M 750 3309 
L 1409 3309 
L 1409 2516 
L 750 2516 
L 750 3309 
z
M 750 794 
L 1409 794 
L 1409 256 
L 897 -744 
L 494 -744 
L 750 256 
L 750 794 
z
" transform="scale(0.015625)"/>
    </defs>
    <use xlink:href="#DejaVuSans-47"/>
    <use xlink:href="#DejaVuSans-68" transform="translate(77.490234 0)"/>
    <use xlink:href="#DejaVuSans-61" transform="translate(140.869141 0)"/>
    <use xlink:href="#DejaVuSans-6e" transform="translate(202.148438 0)"/>
    <use xlink:href="#DejaVuSans-61" transform="translate(265.527344 0)"/>
    <use xlink:href="#DejaVuSans-20" transform="translate(326.806641 0)"/>
    <use xlink:href="#DejaVuSans-6e" transform="translate(358.59375 0)"/>
    <use xlink:href="#DejaVuSans-61" transform="translate(421.972656 0)"/>
    <use xlink:href="#DejaVuSans-74" transform="translate(483.251953 0)"/>
    <use xlink:href="#DejaVuSans-69" transform="translate(522.460938 0)"/>
    <use xlink:href="#DejaVuSans-6f" transform="translate(550.244141 0)"/>
    <use xlink:href="#DejaVuSans-6e" transform="translate(611.425781 0)"/>
    <use xlink:href="#DejaVuSans-61" transform="translate(674.804688 0)"/>
    <use xlink:href="#DejaVuSans-6c" transform="translate(736.083984 0)"/>
    <use xlink:href="#DejaVuSans-20" transform="translate(763.867188 0)"/>
    <use xlink:href="#DejaVuSans-63" transform="translate(795.654297 0)"/>
    <use xlink:href="#DejaVuSans-6f" transform="translate(850.634766 0)"/>
    <use xlink:href="#DejaVuSans-6e" transform="translate(911.816406 0)"/>
    <use xlink:href="#DejaVuSans-74" transform="translate(975.195312 0)"/>
    <use xlink:href="#DejaVuSans-65" transform="translate(1014.404297 0)"/>
    <use xlink:href="#DejaVuSans-78" transform="translate(1074.177734 0)"/>
    <use xlink:href="#DejaVuSans-74" transform="translate(1133.357422 0)"/>
    <use xlink:href="#DejaVuSans-20" transform="translate(1172.566406 0)"/>
    <use xlink:href="#DejaVuSans-28" transform="translate(1204.353516 0)"/>
    <use xlink:href="#DejaVuSans-57" transform="translate(1243.367188 0)"/>
    <use xlink:href="#DejaVuSans-48" transform="translate(1342.244141 0)"/>
    <use xlink:href="#DejaVuSans-4f" transform="translate(1417.439453 0)"/>
    <use xlink:href="#DejaVuSans-20" transform="translate(1496.150391 0)"/>
    <use xlink:href="#DejaVuSans-47" transform="translate(1527.9375 0)"/>
    <use xlink:href="#DejaVuSans-48" transform="translate(1605.427734 0)"/>
    <use xlink:href="#DejaVuSans-4f" transform="translate(1680.623047 0)"/>
    <use xlink:href="#DejaVuSans-29" transform="translate(1759.333984 0)"/>
    <use xlink:href="#DejaVuSans-20" transform="translate(1798.347656 0)"/>
    <use xlink:href="#DejaVuSans-2014" transform="translate(1830.134766 0)"/>
    <use xlink:href="#DejaVuSans-20" transform="translate(1930.134766 0)"/>
    <use xlink:href="#DejaVuSans-63" transform="translate(1961.921875 0)"/>
    <use xlink:href="#DejaVuSans-6f" transform="translate(2016.902344 0)"/>
    <use xlink:href="#DejaVuSans-75" transform="translate(2078.083984 0)"/>
    <use xlink:href="#DejaVuSans-6e" transform="translate(2141.462891 0)"/>
    <use xlink:href="#DejaVuSans-74" transform="translate(2204.841797 0)"/>
    <use xlink:href="#DejaVuSans-72" transform="translate(2244.050781 0)"/>
    <use xlink:href="#DejaVuSans-79" transform="translate(2285.164062 0)"/>
    <use xlink:href="#DejaVuSans-2d" transform="translate(2342.59375 0)"/>
    <use xlink:href="#DejaVuSans-6c" transform="translate(2378.677734 0)"/>
    <use xlink:href="#DejaVuSans-65" transform="translate(2406.460938 0)"/>
    <use xlink:href="#DejaVuSans-76" transform="translate(2467.984375 0)"/>
    <use xlink:href="#DejaVuSans-65" transform="translate(2527.164062 0)"/>
    <use xlink:href="#DejaVuSans-6c" transform="translate(2588.6875 0)"/>
    <use xlink:href="#DejaVuSans-20" transform="translate(2616.470703 0)"/>
    <use xlink:href="#DejaVuSans-66" transform="translate(2648.257812 0)"/>
    <use xlink:href="#DejaVuSans-72" transform="translate(2683.462891 0)"/>
    <use xlink:href="#DejaVuSans-61" transform="translate(2724.576172 0)"/>
    <use xlink:href="#DejaVuSans-6d" transform="translate(2785.855469 0)"/>
    <use xlink:href="#DejaVuSans-69" transform="translate(2883.267578 0)"/>
    <use xlink:href="#DejaVuSans-6e" transform="translate(2911.050781 0)"/>
    <use xlink:href="#DejaVuSans-67" transform="translate(2974.429688 0)"/>
    <use xlink:href="#DejaVuSans-3b" transform="translate(3037.90625 0)"/>
    <use xlink:href="#DejaVuSans-20" transform="translate(3071.597656 0)"/>
    <use xlink:href="#DejaVuSans-6e" transform="translate(3103.384766 0)"/>
    <use xlink:href="#DejaVuSans-6f" transform="translate(3166.763672 0)"/>
    <use xlink:href="#DejaVuSans-74" transform="translate(3227.945312 0)"/>
    <use xlink:href="#DejaVuSans-20" transform="translate(3267.154297 0)"/>
    <use xlink:href="#DejaVuSans-75" transform="translate(3298.941406 0)"/>
    <use xlink:href="#DejaVuSans-73" transform="translate(3362.320312 0)"/>
    <use xlink:href="#DejaVuSans-65" transform="translate(3414.419922 0)"/>
    <use xlink:href="#DejaVuSans-64" transform="translate(3475.943359 0)"/>
    <use xlink:href="#DejaVuSans-20" transform="translate(3539.419922 0)"/>
    <use xlink:href="#DejaVuSans-69" transform="translate(3571.207031 0)"/>
    <use xlink:href="#DejaVuSans-6e" transform="translate(3598.990234 0)"/>
    <use xlink:href="#DejaVuSans-20" transform="translate(3662.369141 0)"/>
    <use xlink:href="#DejaVuSans-74" transform="translate(3694.15625 0)"/>
    <use xlink:href="#DejaVuSans-68" transform="translate(3733.365234 0)"/>
    <use xlink:href="#DejaVuSans-65" transform="translate(3796.744141 0)"/>
    <use xlink:href="#DejaVuSans-20" transform="translate(3858.267578 0)"/>
    <use xlink:href="#DejaVuSans-64" transform="translate(3890.054688 0)"/>
    <use xlink:href="#DejaVuSans-69" transform="translate(3953.53125 0)"/>
    <use xlink:href="#DejaVuSans-73" transform="translate(3981.314453 0)"/>
    <use xlink:href="#DejaVuSans-74" transform="translate(4033.414062 0)"/>
    <use xlink:href="#DejaVuSans-72" transform="translate(4072.623047 0)"/>
    <use xlink:href="#DejaVuSans-69" transform="translate(4113.736328 0)"/>
    <use xlink:href="#DejaVuSans-63" transform="translate(4141.519531 0)"/>
    <use xlink:href="#DejaVuSans-74" transform="translate(4196.5 0)"/>
    <use xlink:href="#DejaVuSans-20" transform="translate(4235.708984 0)"/>
    <use xlink:href="#DejaVuSans-6d" transform="translate(4267.496094 0)"/>
    <use xlink:href="#DejaVuSans-6f" transform="translate(4364.908203 0)"/>
    <use xlink:href="#DejaVuSans-64" transform="translate(4426.089844 0)"/>
    <use xlink:href="#DejaVuSans-65" transform="translate(4489.566406 0)"/>
    <use xlink:href="#DejaVuSans-6c" transform="translate(4551.089844 0)"/>
   </g>
  </g>
 </g>
 <defs>
  <clipPath id="p8388f93b9e">
   <rect x="46.965625" y="58.704" width="312.352067" height="231.112"/>
  </clipPath>
  <clipPath id="pfa296f85aa">
   <rect x="464.943558" y="58.704" width="312.352067" height="231.112"/>
  </clipPath>
 </defs>
</svg>
